<svg width="71" height="71" viewBox="0 0 71 71" fill="none" xmlns="http://www.w3.org/2000/svg">
<path d="M41.8021 61.7352H28.6039C22.197 61.7352 18.2148 57.2138 18.2148 50.8131V33.5444C18.2148 27.1439 22.2191 22.6226 28.6039 22.6226H55.0035C61.4106 22.6226 65.3959 27.1439 65.3959 33.5444V50.8131C65.3959 57.2138 61.4106 61.7352 55.0003 61.7352H52.6402" stroke="white" stroke-width="4" stroke-linecap="round" stroke-linejoin="round"/>
<path d="M28.5645 35.6436H55.0336" stroke="white" stroke-width="4" stroke-linecap="round" stroke-linejoin="round"/>
<path d="M53.9772 22.6133L49.352 14.9043C46.038 9.44649 40.3059 7.60517 34.8042 10.9221L23.5039 17.723" stroke="white" stroke-width="4" stroke-linecap="round" stroke-linejoin="round"/>
<path d="M12.2041 24.5283C6.72425 27.82 5.62073 33.757 8.91242 39.259L17.8416 54.0337C18.2578 54.7494 18.7181 55.3925 19.2447 55.9698V55.9916" stroke="white" stroke-width="4" stroke-linecap="round" stroke-linejoin="round"/>
</svg>
