<svg width="71" height="71" viewBox="0 0 71 71" fill="none" xmlns="http://www.w3.org/2000/svg">
<path d="M23.7193 45.3776L23.7231 45.3776C24.0192 45.3788 24.3107 45.3015 24.568 45.1539L23.7193 45.3776ZM23.7193 45.3776C23.425 45.3787 23.1359 45.3015 22.8817 45.1537L22.8797 45.1525M23.7193 45.3776L22.8797 45.1525M22.8797 45.1525C22.6879 45.0422 22.5195 44.895 22.3844 44.7195L22.8797 45.1525ZM22.3842 44.7192C22.2493 44.5436 22.1502 44.343 22.0928 44.1292L22.0928 44.1291C22.0354 43.9153 22.0207 43.6922 22.0495 43.4727L22.0495 43.4727C22.0784 43.253 22.1503 43.0414 22.2612 42.8494L22.2613 42.8493L31.7404 26.4314L31.7405 26.4313C31.9644 26.0433 32.3331 25.7602 32.7658 25.6441L32.7658 25.6441C33.1983 25.5281 33.6591 25.5886 34.0471 25.8124L34.0472 25.8124C34.4351 26.0362 34.7182 26.4049 34.8343 26.8376C34.9504 27.2701 34.8899 27.731 34.6661 28.1189C34.6661 28.1189 34.666 28.1189 34.666 28.1189L25.1872 44.5364C25.0387 44.793 24.8253 45.006 24.5682 45.1538L22.3842 44.7192Z" fill="white" stroke="white"/>
<path d="M32.953 42.9142L32.9534 42.9144C33.2343 43.1104 33.5681 43.2164 33.9105 43.2182C34.109 43.2179 34.3052 43.1816 34.4897 43.1111L34.4933 43.1098L34.4934 43.1098C34.9126 42.9534 35.2523 42.6373 35.4384 42.2304L35.4385 42.2303C35.6245 41.8238 35.6416 41.36 35.4858 40.941C35.4858 40.941 35.4858 40.9409 35.4857 40.9409L31.9863 31.5391C31.9862 31.5389 31.9861 31.5387 31.9861 31.5384C31.8482 31.1719 31.5876 30.8645 31.2485 30.6685C30.9095 30.4724 30.5132 30.3996 30.1267 30.4624C30.1263 30.4624 30.126 30.4625 30.1257 30.4626L20.2258 32.1218C19.7842 32.1958 19.39 32.4422 19.13 32.8068C18.8701 33.1713 18.7656 33.6242 18.8396 34.066L32.953 42.9142ZM32.953 42.9142C32.6717 42.7183 32.4568 42.4412 32.3365 42.1199C32.3365 42.1198 32.3364 42.1197 32.3364 42.1197L29.4549 34.4082L29.3105 34.0219M32.953 42.9142L29.3105 34.0219M29.3105 34.0219L28.9038 34.0901M29.3105 34.0219L28.9038 34.0901M28.9038 34.0901L20.7838 35.4522M28.9038 34.0901L20.7838 35.4522M20.7838 35.4522C20.7838 35.4522 20.7838 35.4522 20.7838 35.4522M20.7838 35.4522L20.7838 35.4522M20.7838 35.4522C20.3423 35.5262 19.8894 35.4216 19.5246 35.1616M20.7838 35.4522L19.5246 35.1616M19.5246 35.1616L19.2344 35.5688M19.5246 35.1616L19.2344 35.5688M19.2344 35.5688L19.5246 35.1616C19.1601 34.9018 18.9137 34.5075 18.8396 34.066L19.2344 35.5688Z" fill="white" stroke="white"/>
<path d="M27.9727 47.8398L27.9743 47.8398C28.3462 47.8407 28.7081 47.7186 29.0038 47.4926C29.2992 47.2663 29.5118 46.949 29.6082 46.5899C29.7048 46.2306 29.6798 45.8495 29.5372 45.5061L29.5371 45.5058C29.3946 45.1622 29.1426 44.8752 28.8205 44.6899L28.8197 44.6895L20.3176 39.7807L20.3176 39.7807C20.1258 39.67 19.9138 39.5981 19.6936 39.569C19.4736 39.5402 19.2503 39.5549 19.0366 39.6124L19.0361 39.6125C18.8222 39.6698 18.6215 39.769 18.4454 39.9042L27.9727 47.8398ZM27.9727 47.8398C27.6776 47.84 27.3876 47.7625 27.1321 47.6151L18.6302 42.7064C18.438 42.5954 18.2695 42.4477 18.1343 42.2718C17.9993 42.0958 17.9003 41.8951 17.8429 41.6811L17.8429 41.681M27.9727 47.8398L17.8429 41.681M17.8429 41.681C17.7854 41.4667 17.7707 41.2435 17.7995 41.0237L17.7995 41.0236M17.8429 41.681L17.7995 41.0236M17.7995 41.0236C17.8284 40.8035 17.9003 40.5916 18.011 40.3998L18.0112 40.3996M17.7995 41.0236L18.0112 40.3996M18.0112 40.3996C18.122 40.2075 18.2695 40.0392 18.4453 39.9042L18.0112 40.3996Z" fill="white" stroke="white"/>
<path d="M49.1768 58.4406L49.1564 58.4396L49.136 58.4402C48.6797 58.4532 48.2232 58.4365 47.7692 58.39L47.7546 58.3885L47.74 58.3879C47.2264 58.3655 46.7265 58.2163 46.285 57.9531L46.2849 57.953C45.8434 57.69 45.4739 57.3214 45.2103 56.8807L45.1951 56.8555L45.1772 56.8322C45.1773 56.8324 45.1746 56.8289 45.1686 56.8201C45.1628 56.8117 45.1552 56.8004 45.1456 56.7857C45.1263 56.7561 45.1014 56.7166 45.0704 56.6659C45.0085 56.5646 44.9263 56.4254 44.8219 56.2447C44.6137 55.8841 44.3221 55.3661 43.9372 54.6704C43.6064 54.0513 43.1191 53.5296 42.5241 53.1573C41.9277 52.7842 41.2441 52.5743 40.5411 52.5486L40.5363 52.5485C39.7077 52.5261 38.8927 52.7603 38.2025 53.2186L38.2025 53.2186C37.513 53.6766 36.9815 54.3357 36.6805 55.107C35.9973 56.8031 35.7107 57.466 35.0248 57.9336C34.2297 58.3764 33.3145 58.556 32.4105 58.4465L32.3805 58.4429H32.3504H30.9591C25.6938 58.4429 21.8002 58.4416 18.7557 57.9836C15.7339 57.529 13.6031 56.6314 11.8407 54.8704C10.0787 53.1098 9.18175 50.9772 8.72824 47.9538C8.27148 44.9087 8.27148 41.0161 8.27148 35.7577V35.7524V35.2304C8.27148 29.965 8.27279 26.0715 8.73041 23.0269C9.18461 20.0051 10.0816 17.8743 11.8411 16.1119C13.6002 14.3501 15.7334 13.4531 18.7576 12.9996C21.8034 12.5428 25.6968 12.5428 30.9538 12.5428H30.9591H32.3533H32.3837L32.4138 12.5391C33.3196 12.4286 34.2373 12.6079 35.0348 13.0512C35.7252 13.5303 36.0129 14.1993 36.6863 15.8874C36.9676 16.6032 37.4483 17.2233 38.0715 17.674C38.6952 18.1251 39.4354 18.3874 40.2039 18.4298C40.9724 18.4723 41.737 18.2931 42.4065 17.9135L42.16 17.4786L42.4065 17.9135C43.0757 17.5342 43.6221 16.9709 43.9805 16.2902C44.3559 15.5861 44.628 15.0852 44.8195 14.7425C45.0177 14.3878 45.1161 14.2274 45.1499 14.1811L45.1628 14.1635L45.1741 14.1448C45.4453 13.6961 45.8218 13.3204 46.2709 13.0503C46.72 12.7802 47.2285 12.6237 47.7519 12.5945L47.7615 12.594L47.771 12.5931C48.2189 12.5509 48.6691 12.536 49.1191 12.5484L49.1381 12.5489L49.157 12.548C50.9533 12.461 52.7535 12.5562 54.5307 12.8321C56.8197 13.3285 58.9179 14.4732 60.5743 16.1296C62.2307 17.7861 63.3754 19.8841 63.8719 22.1733C64.1476 23.9503 64.2427 25.7508 64.1559 27.547L64.1554 27.5591V27.5711V43.4554V43.4672L64.1559 43.4791C64.2407 45.2648 64.1455 47.0548 63.8718 48.8215C63.3773 51.1168 62.2312 53.2206 60.5709 54.8804C58.9103 56.5404 56.8064 57.6859 54.5115 58.1796C52.7466 58.4477 50.9593 58.5351 49.1768 58.4406ZM30.4591 15.909V15.9178C26.0752 15.9182 22.7123 15.9282 20.1435 16.2252C17.4775 16.5334 15.5642 17.1596 14.2256 18.4965C12.8868 19.8338 12.2606 21.7475 11.9528 24.4137C11.6465 27.0666 11.6465 30.5665 11.6465 35.1621V35.2304V35.7524V35.7883C11.6465 40.3999 11.6465 43.9092 11.9539 46.5676C12.2621 49.2332 12.8883 51.1459 14.2254 52.4831C15.5625 53.8202 17.476 54.4472 20.1422 54.7561C22.8077 55.0649 26.3281 55.0649 30.956 55.0649H30.9591H32.7266H33.0644L33.1904 54.7516C33.2295 54.6545 33.2691 54.554 33.3113 54.4468C33.3794 54.2737 33.4544 54.0833 33.5451 53.8621L33.5451 53.8621L33.5478 53.8554C34.0902 52.4757 35.0356 51.2916 36.2612 50.4574L36.2612 50.4574C37.4857 49.6238 38.933 49.1784 40.4143 49.1791C41.7265 49.1968 43.0116 49.5578 44.1409 50.2262L44.1411 50.2263C45.2708 50.8944 46.2058 51.8472 46.8531 52.989C47.4116 54.0018 47.7301 54.5766 47.8709 54.8093L48.0169 55.0504H48.2987H48.3541H48.3548H48.3555H48.3562H48.3569H48.3576H48.3583H48.359H48.3597H48.3604H48.3611H48.3618H48.3625H48.3632H48.364H48.3647H48.3654H48.3662H48.3669H48.3676H48.3684H48.3691H48.3699H48.3706H48.3714H48.3722H48.3729H48.3737H48.3745H48.3752H48.376H48.3768H48.3776H48.3783H48.3791H48.3799H48.3807H48.3815H48.3823H48.3831H48.3839H48.3847H48.3855H48.3864H48.3872H48.388H48.3888H48.3896H48.3905H48.3913H48.3922H48.393H48.3938H48.3947H48.3955H48.3964H48.3972H48.3981H48.399H48.3998H48.4007H48.4016H48.4024H48.4033H48.4042H48.4051H48.406H48.4069H48.4078H48.4087H48.4096H48.4105H48.4114H48.4123H48.4132H48.4141H48.415H48.416H48.4169H48.4178H48.4187H48.4197H48.4206H48.4216H48.4225H48.4235H48.4244H48.4254H48.4263H48.4273H48.4282H48.4292H48.4302H48.4312H48.4321H48.4331H48.4341H48.4351H48.4361H48.4371H48.4381H48.4391H48.4401H48.4411H48.4421H48.4431H48.4441H48.4451H48.4462H48.4472H48.4482H48.4493H48.4503H48.4513H48.4524H48.4534H48.4545H48.4555H48.4566H48.4576H48.4587H48.4598H48.4608H48.4619H48.463H48.4641H48.4651H48.4662H48.4673H48.4684H48.4695H48.4706H48.4717H48.4728H48.4739H48.475H48.4761H48.4772H48.4784H48.4795H48.4806H48.4817H48.4829H48.484H48.4852H48.4863H48.4874H48.4886H48.4897H48.4909H48.4921H48.4932H48.4944H48.4956H48.4967H48.4979H48.4991H48.5003H48.5015H48.5027H48.5038H48.505H48.5062H48.5075H48.5087H48.5099H48.5111H48.5123H48.5135H48.5147H48.516H48.5172H48.5184H48.5197H48.5209H48.5221H48.5234H48.5246H48.5259H48.5272H48.5284H48.5297H48.5309H48.5322H48.5335H48.5348H48.536H48.5373H48.5386H48.5399H48.5412H48.5425H48.5438H48.5451H48.5464H48.5477H48.549H48.5504H48.5517H48.553H48.5543H48.5557H48.557H48.5583H48.5597H48.561H48.5624H48.5637H48.5651H48.5664H48.5678H48.5691H48.5705H48.5719H48.5733H48.5746H48.576H48.5774H48.5788H48.5802H48.5816H48.583H48.5844H48.5858H48.5872H48.5886H48.59H48.5914H48.5929H48.5943H48.5957H48.5972H48.5986H48.6H48.6015H48.6029H48.6044H48.6058H48.6073H48.6087H48.6102H48.6117H48.6131H48.6146H48.6161H48.6176H48.6191H48.6206H48.622H48.6235H48.625H48.6265H48.628H48.6296H48.6311H48.6326H48.6341H48.6356H48.6371H48.6387H48.6402H48.6418H48.6433H48.6448H48.6464H48.6479H48.6495H48.651H48.6526H48.6542H48.6557H48.6573H48.6589H48.6605H48.662H48.6636H48.6652H48.6668H48.6684H48.67H48.6716H48.6732H48.6748H48.6764H48.6781H48.6797H48.6813H48.6829H48.6846H48.6862H48.6878H48.6895H48.6911H48.6928H48.6944H48.6961H48.6977H48.6994H48.7011H48.7027H48.7044H48.7061H48.7078H48.7094H48.7111H48.7128H48.7145H48.7162H48.7179H48.7196H48.7213H48.723H48.7248H48.7265H48.7282H48.7299H48.7317H48.7334H48.7351H48.7369H48.7386H48.7404H48.7421H48.7439H48.7456H48.7474H48.7492H48.7509H48.7527H48.7545H48.7563H48.758H48.7598H48.7616H48.7634H48.7652H48.767H48.7688H48.7706H48.7724H48.7743H48.7761H48.7779H48.7797H48.7816H48.7834H48.7852H48.7871H48.7889H48.7908H48.7926H48.7945H48.7963H48.7982H48.8001H48.8019H48.8038H48.8057H48.8076H48.8095H48.8114H48.8132H48.8151H48.817H48.8189H48.8209H48.8228H48.8247H48.8266H48.8285H48.8304H48.8324H48.8343H48.8362H48.8382H48.8401H48.8421H48.844H48.846H48.8479H48.8499H48.8519H48.8538H48.8558H48.8578H48.8598H48.8617H48.8637H48.8657H48.8677H48.8697H48.8717H48.8737H48.8757H48.8777H48.8798H48.8818H48.8838H48.8858H48.8879H48.8899H48.8919H48.894H48.896H48.8981H48.9001H48.9022H48.9042H48.9063H48.9084H48.9104H48.9125H48.9146H48.9167H48.9188H48.9209H48.923H48.9251H48.9272H48.9293H48.9314H48.9335H48.9356H48.9377H48.9399H48.942H48.9441H48.9463H48.9484H48.9505H48.9527H48.9548H48.957H48.9591H48.9613H48.9635H48.9656H48.9678H48.97H48.9722H48.9744H48.9765H48.9787H48.9809H48.9831H48.9853H48.9875H48.9897H48.992H48.9942H48.9964H48.9986H49.0009H49.0031H49.0053H49.0076H49.0098H49.0121H49.0143H49.0166H49.0188H49.0211H49.0234H49.0256H49.0279H49.0302H49.0325H49.0348H49.037H49.0393H49.0416H49.0439H49.0462H49.0486H49.0509H49.0532H49.0555H49.0578H49.0602H49.0625H49.0648H49.0672H49.0695H49.0719H49.0742H49.0766H49.0789H49.0813H49.0837H49.086H49.0884H49.0908H49.0932H49.0955H49.0979H49.1003H49.1027H49.1051H49.1075H49.1099H49.1124H49.1148H49.1172H49.1196H49.122H49.1245H49.1269H49.1293H49.1298C50.6704 55.1229 52.2144 55.06 53.744 54.8625L53.7643 54.8599L53.7844 54.8556C55.4487 54.5 56.9748 53.6708 58.1791 52.4678L58.1791 52.4678C59.383 51.2648 60.2138 49.7393 60.5709 48.0753L60.5754 48.0544L60.578 48.0332C60.7722 46.5018 60.8339 44.9564 60.7629 43.4146V27.5683C60.8351 26.0162 60.7722 24.4609 60.5751 22.9198L60.5724 22.8986L60.5679 22.8778C60.2105 21.221 59.3837 19.702 58.1863 18.5023C56.9888 17.3027 55.4714 16.4733 53.8154 16.113L53.7942 16.1084L53.7727 16.1056C52.2325 15.9082 50.6778 15.8453 49.1269 15.9178H49.1263H49.1239H49.1214H49.119H49.1165H49.1141H49.1117H49.1092H49.1068H49.1044H49.102H49.0995H49.0971H49.0947H49.0923H49.0899H49.0875H49.0851H49.0827H49.0804H49.078H49.0756H49.0732H49.0709H49.0685H49.0661H49.0638H49.0614H49.0591H49.0567H49.0544H49.052H49.0497H49.0474H49.0451H49.0427H49.0404H49.0381H49.0358H49.0335H49.0312H49.0289H49.0266H49.0243H49.022H49.0197H49.0174H49.0152H49.0129H49.0106H49.0084H49.0061H49.0038H49.0016H48.9993H48.9971H48.9948H48.9926H48.9904H48.9881H48.9859H48.9837H48.9815H48.9792H48.977H48.9748H48.9726H48.9704H48.9682H48.966H48.9638H48.9616H48.9595H48.9573H48.9551H48.9529H48.9508H48.9486H48.9464H48.9443H48.9421H48.94H48.9378H48.9357H48.9336H48.9314H48.9293H48.9272H48.925H48.9229H48.9208H48.9187H48.9166H48.9145H48.9124H48.9103H48.9082H48.9061H48.904H48.9019H48.8998H48.8978H48.8957H48.8936H48.8916H48.8895H48.8874H48.8854H48.8833H48.8813H48.8792H48.8772H48.8752H48.8731H48.8711H48.8691H48.8671H48.865H48.863H48.861H48.859H48.857H48.855H48.853H48.851H48.849H48.847H48.845H48.8431H48.8411H48.8391H48.8371H48.8352H48.8332H48.8312H48.8293H48.8273H48.8254H48.8234H48.8215H48.8196H48.8176H48.8157H48.8138H48.8118H48.8099H48.808H48.8061H48.8042H48.8023H48.8004H48.7985H48.7966H48.7947H48.7928H48.7909H48.789H48.7871H48.7852H48.7834H48.7815H48.7796H48.7778H48.7759H48.7741H48.7722H48.7704H48.7685H48.7667H48.7648H48.763H48.7612H48.7593H48.7575H48.7557H48.7539H48.752H48.7502H48.7484H48.7466H48.7448H48.743H48.7412H48.7394H48.7376H48.7358H48.7341H48.7323H48.7305H48.7287H48.727H48.7252H48.7234H48.7217H48.7199H48.7181H48.7164H48.7146H48.7129H48.7112H48.7094H48.7077H48.706H48.7042H48.7025H48.7008H48.6991H48.6973H48.6956H48.6939H48.6922H48.6905H48.6888H48.6871H48.6854H48.6837H48.6821H48.6804H48.6787H48.677H48.6753H48.6737H48.672H48.6703H48.6687H48.667H48.6654H48.6637H48.6621H48.6604H48.6588H48.6571H48.6555H48.6539H48.6522H48.6506H48.649H48.6474H48.6457H48.6441H48.6425H48.6409H48.6393H48.6377H48.6361H48.6345H48.6329H48.6313H48.6297H48.6281H48.6266H48.625H48.6234H48.6218H48.6203H48.6187H48.6171H48.6156H48.614H48.6125H48.6109H48.6094H48.6078H48.6063H48.6047H48.6032H48.6017H48.6002H48.5986H48.5971H48.5956H48.5941H48.5925H48.591H48.5895H48.588H48.5865H48.585H48.5835H48.582H48.5805H48.579H48.5776H48.5761H48.5746H48.5731H48.5716H48.5702H48.5687H48.5672H48.5658H48.5643H48.5629H48.5614H48.56H48.5585H48.5571H48.5556H48.5542H48.5527H48.5513H48.5499H48.5485H48.547H48.5456H48.5442H48.5428H48.5414H48.5399H48.5385H48.5371H48.5357H48.5343H48.5329H48.5315H48.5301H48.5288H48.5274H48.526H48.5246H48.5232H48.5219H48.5205H48.5191H48.5177H48.5164H48.515H48.5137H48.5123H48.511H48.5096H48.5083H48.5069H48.5056H48.5042H48.5029H48.5016H48.5002H48.4989H48.4976H48.4963H48.4949H48.4936H48.4923H48.491H48.4897H48.4884H48.4871H48.4858H48.4845H48.4832H48.4819H48.4806H48.4793H48.478H48.4767H48.4755H48.4742H48.4729H48.4716H48.4704H48.4691H48.4678H48.4666H48.4653H48.4641H48.4628H48.4616H48.4603H48.4591H48.4578H48.4566H48.4553H48.4541H48.4529H48.4516H48.4504H48.4492H48.448H48.4468H48.4455H48.4443H48.4431H48.4419H48.4407H48.4395H48.4383H48.4371H48.4359H48.4347H48.4335H48.4323H48.4311H48.4299H48.4288H48.4276H48.4264H48.4252H48.4241H48.4229H48.4217H48.4206H48.4194H48.4182H48.4171H48.4159H48.4148H48.4136H48.4125H48.4113H48.4102H48.409H48.4079H48.4068H48.4056H48.4045H48.4034H48.4023H48.4011H48.4H48.3989H48.3978H48.3967H48.3955H48.3944H48.3933H48.3922H48.3911H48.39H48.3889H48.3878H48.3867H48.3857H48.3846H48.3835H48.3824H48.3813H48.3802H48.3792H48.3781H48.377H48.3759H48.3749H48.3738H48.3728H48.3717H48.3706H48.3696H48.3685H48.3675H48.3664H48.3654H48.3643H48.3633H48.3623H48.3612H48.3602H48.3592H48.3581H48.3571H48.3561H48.3551H48.354H48.353H48.352H48.351H48.35H48.349H48.348H48.347H48.3459H48.3449H48.3439H48.3429H48.342H48.341H48.34H48.339H48.338H48.337H48.336H48.3351H48.3341H48.3331H48.3321H48.3312H48.3302H48.3292H48.3283H48.3273H48.3263H48.3254H48.3244H48.3235H48.3225H48.3216H48.3206H48.3197H48.3187H48.3178H48.3169H48.3159H48.315H48.3141H48.3131H48.3122H48.3113H48.3104H48.0428L47.8943 16.1404L47.8593 16.1929L47.8517 16.2044L47.8447 16.2163C47.7694 16.3439 47.5108 16.8286 47.0712 17.6673L47.0712 17.6673L47.0673 17.675C46.4475 18.9087 45.4987 19.9471 44.3259 20.6752C43.153 21.403 41.8021 21.7925 40.4222 21.8007C38.9417 21.801 37.4955 21.3558 36.2716 20.523C35.0473 19.6899 34.102 18.5076 33.5593 17.13L33.5593 17.1299L33.5578 17.1262C33.4914 16.9615 33.427 16.7976 33.3674 16.6457C33.3046 16.4858 33.2471 16.3393 33.198 16.2195L33.0709 15.909H32.7354H30.9591H30.4591Z" fill="white" stroke="white"/>
<path d="M62.4599 43.042H52.6045C52.0241 43.042 51.4679 42.8116 51.0575 42.4015C50.6474 41.9911 50.417 41.4346 50.417 40.8545C50.417 40.2744 50.6474 39.7182 51.0575 39.3078C51.4679 38.8977 52.0241 38.667 52.6045 38.667H62.4599C63.04 38.667 63.5962 38.8977 64.0066 39.3078C64.4167 39.7182 64.6474 40.2744 64.6474 40.8545C64.6474 41.4346 64.4167 41.9911 64.0066 42.4015C63.5962 42.8116 63.04 43.042 62.4599 43.042Z" fill="white"/>
<path d="M62.4589 32.3784H48.001C47.4209 32.3784 46.8646 32.148 46.4543 31.7377C46.0439 31.3276 45.8135 30.7711 45.8135 30.1909C45.8135 29.6108 46.0439 29.0544 46.4543 28.6442C46.8646 28.2339 47.4209 28.0034 48.001 28.0034H62.4589C63.039 28.0034 63.5955 28.2339 64.0059 28.6442C64.416 29.0544 64.6464 29.6108 64.6464 30.1909C64.6464 30.7711 64.416 31.3276 64.0059 31.7377C63.5955 32.148 63.039 32.3784 62.4589 32.3784Z" fill="white"/>
</svg>
