<svg width="71" height="71" viewBox="0 0 71 71" fill="none" xmlns="http://www.w3.org/2000/svg">
<path d="M35.8321 13.8501C22.0983 13.8501 10.9648 24.9836 10.9648 38.7175C16.1959 38.9543 18.8013 39.6989 22.2906 42.1431C32.9714 37.9982 38.6569 38.0729 49.3491 42.1431C53.0999 39.3962 55.6605 38.8093 60.6996 38.7175C60.6996 24.9836 49.5661 13.8501 35.8321 13.8501Z" stroke="white" stroke-width="4" stroke-linecap="round" stroke-linejoin="round"/>
<path d="M46.6157 41.112C46.6157 23.4674 35.8328 13.8501 35.8328 13.8501C35.8328 13.8501 25.0498 24.5929 25.0498 41.112" stroke="white" stroke-width="4" stroke-linecap="round" stroke-linejoin="round"/>
<path d="M35.8335 39.1118V56.8985C35.8335 59.5784 33.6612 61.7507 30.9813 61.7507C28.3014 61.7507 26.1289 59.5784 26.1289 56.8985V56.0008" stroke="white" stroke-width="4" stroke-linecap="round" stroke-linejoin="round"/>
<path d="M35.833 9.25V13.8505" stroke="white" stroke-width="4" stroke-linecap="round" stroke-linejoin="round"/>
</svg>
