<svg width="71" height="71" viewBox="0 0 71 71" fill="none" xmlns="http://www.w3.org/2000/svg">
<path d="M61.261 28.6282C63.7883 36.5595 62.4892 45.5796 56.9965 52.679C48.136 64.1348 31.6641 66.2628 20.1847 57.3845C8.72889 48.5242 6.61886 32.0285 15.4793 20.5728C24.2124 9.27974 40.3085 7.05426 51.7673 15.4234" stroke="white" stroke-width="4" stroke-linecap="round" stroke-linejoin="round"/>
<path d="M49.5276 8.12207L52.2622 15.198L45.2246 17.9176" stroke="white" stroke-width="4" stroke-linecap="round" stroke-linejoin="round"/>
<path d="M46.2786 44.881V41.1197M46.2786 41.1197H49.4659M46.2786 41.1197H37.1074L46.2786 28.3677V41.1197Z" stroke="white" stroke-width="3" stroke-linecap="round" stroke-linejoin="round"/>
<path d="M23.0391 32.8196C23.0391 30.3929 25.0071 28.4248 27.4338 28.4248C29.8606 28.4248 31.8314 30.3929 31.8314 32.8196C31.8314 38.3122 23.042 38.3122 23.042 44.8199H31.8314" stroke="white" stroke-width="3" stroke-linecap="round" stroke-linejoin="round"/>
</svg>
