<svg width="70" height="70" viewBox="0 0 70 70" fill="none" xmlns="http://www.w3.org/2000/svg">
<path d="M60.761 28.1281C63.2883 36.0594 61.9892 45.0795 56.4965 52.1789C47.636 63.6347 31.1641 65.7627 19.6847 56.8844C8.22889 48.0241 6.11886 31.5283 14.9793 20.0726C23.7124 8.77962 39.8085 6.55414 51.2673 14.9233" stroke="white" stroke-width="4" stroke-linecap="round" stroke-linejoin="round"/>
<path d="M49.0278 7.62207L51.7625 14.698L44.7249 17.4176" stroke="white" stroke-width="4" stroke-linecap="round" stroke-linejoin="round"/>
<path d="M45.7783 44.3811V40.6198M45.7783 40.6198H48.9657M45.7783 40.6198H36.6072L45.7783 27.8678V40.6198Z" stroke="white" stroke-width="3" stroke-linecap="round" stroke-linejoin="round"/>
<path d="M22.5396 32.3196C22.5396 29.8929 24.5075 27.9248 26.9342 27.9248C29.3611 27.9248 31.3318 29.8929 31.3318 32.3196C31.3318 37.8122 22.5425 37.8122 22.5425 44.3199H31.3318" stroke="white" stroke-width="3" stroke-linecap="round" stroke-linejoin="round"/>
</svg>
