<svg width="70" height="70" viewBox="0 0 70 70" fill="none" xmlns="http://www.w3.org/2000/svg">
<path d="M41.3024 61.2354H28.1041C21.6973 61.2354 17.7151 56.714 17.7151 50.3134V33.0447C17.7151 26.6442 21.7194 22.1228 28.1041 22.1228H54.5038C60.9108 22.1228 64.8962 26.6442 64.8962 33.0447V50.3134C64.8962 56.714 60.9108 61.2354 54.5006 61.2354H52.1404" stroke="white" stroke-width="4" stroke-linecap="round" stroke-linejoin="round"/>
<path d="M28.064 35.1438H54.5332" stroke="white" stroke-width="4" stroke-linecap="round" stroke-linejoin="round"/>
<path d="M53.4777 22.1133L48.8524 14.4043C45.5385 8.94649 39.8064 7.10517 34.3047 10.4221L23.0044 17.223" stroke="white" stroke-width="4" stroke-linecap="round" stroke-linejoin="round"/>
<path d="M11.7041 24.0283C6.22425 27.32 5.12073 33.257 8.41242 38.759L17.3416 53.5337C17.7578 54.2494 18.2181 54.8925 18.7447 55.4698V55.4916" stroke="white" stroke-width="4" stroke-linecap="round" stroke-linejoin="round"/>
</svg>
