<svg width="24" height="25" viewBox="0 0 24 25" fill="none" xmlns="http://www.w3.org/2000/svg">
<g clip-path="url(#clip0_80_387)">
<g clip-path="url(#clip1_80_387)">
<path fill-rule="evenodd" clip-rule="evenodd" d="M16.6641 11.295H9.29413C8.88413 11.295 8.54413 10.955 8.54413 10.545C8.54413 10.125 8.88413 9.795 9.29413 9.795H16.6641C17.0741 9.795 17.4141 10.125 17.4141 10.545C17.4141 10.955 17.0741 11.295 16.6641 11.295ZM16.2641 16.945H11.3341L12.0141 17.575C12.3141 17.855 12.3241 18.335 12.0441 18.635C11.8941 18.795 11.6941 18.875 11.4941 18.875C11.3141 18.875 11.1341 18.805 10.9841 18.675L8.92413 16.745C8.77413 16.605 8.68413 16.405 8.68413 16.195C8.68413 15.985 8.77413 15.795 8.92413 15.645L10.9841 13.725C11.2941 13.445 11.7641 13.465 12.0441 13.765C12.3241 14.065 12.3141 14.545 12.0141 14.825L11.3441 15.445H16.2641C16.6841 15.445 17.0141 15.785 17.0141 16.195C17.0141 16.615 16.6841 16.945 16.2641 16.945ZM20.4541 5.325C19.7241 4.605 18.6941 4.195 17.4641 4.085V3.125C17.4641 2.705 17.1341 2.375 16.7141 2.375C16.3041 2.375 15.9641 2.705 15.9641 3.125V6.675C15.9041 6.695 15.8341 6.715 15.7641 6.715C15.3541 6.715 15.0141 6.375 15.0141 5.965V4.245C15.0141 4.13454 14.9246 4.045 14.8141 4.045H10.1941V3.125C10.1941 2.705 9.85413 2.375 9.44413 2.375C9.03413 2.375 8.69413 2.705 8.69413 3.125V6.675C8.63413 6.695 8.56413 6.715 8.49413 6.715C8.08413 6.715 7.74413 6.375 7.74413 5.965V4.50055C7.74413 4.37063 7.62176 4.27513 7.49731 4.31245C5.5886 4.88473 4.48413 6.43211 4.48413 8.725V16.865C4.48413 19.845 6.27413 21.625 9.27413 21.625H16.8841C19.8841 21.625 21.6841 19.875 21.6841 16.935V8.725C21.6841 7.315 21.2541 6.135 20.4541 5.325Z" fill="#403CA5"/>
</g>
</g>
<defs>
<clipPath id="clip0_80_387">
<rect width="24" height="24" fill="white"/>
</clipPath>
<clipPath id="clip1_80_387">
<rect width="24" height="24" fill="white"/>
</clipPath>
</defs>
</svg>
