<svg width="24" height="25" viewBox="0 0 24 25" fill="none" xmlns="http://www.w3.org/2000/svg">
<g clip-path="url(#clip0_80_386)">
<path fill-rule="evenodd" clip-rule="evenodd" d="M12.4009 14.5156C7.42189 14.5156 5.19189 17.2696 5.19189 19.9996C5.19189 20.1986 5.27089 20.3896 5.41189 20.5306C5.55189 20.6706 5.74289 20.7496 5.94189 20.7496L18.8599 20.7316C19.2739 20.7306 19.6089 20.3946 19.6089 19.9816C19.6089 17.2606 17.3799 14.5156 12.4009 14.5156Z" fill="#403CA5"/>
<path fill-rule="evenodd" clip-rule="evenodd" d="M12.4009 13.001C15.0889 13.001 17.2759 10.813 17.2759 8.125C17.2759 5.437 15.0889 3.25 12.4009 3.25C9.71288 3.25 7.52588 5.437 7.52588 8.125C7.52588 10.813 9.71288 13.001 12.4009 13.001Z" fill="#403CA5"/>
</g>
<defs>
<clipPath id="clip0_80_386">
<rect width="24" height="24" fill="white"/>
</clipPath>
</defs>
</svg>
