<svg width="24" height="25" viewBox="0 0 24 25" fill="none" xmlns="http://www.w3.org/2000/svg">
<g clip-path="url(#clip0_80_388)">
<path fill-rule="evenodd" clip-rule="evenodd" d="M15.6626 11.294H8.29762C7.88362 11.294 7.54762 10.958 7.54762 10.544C7.54762 10.13 7.88362 9.794 8.29762 9.794H15.6626C16.0766 9.794 16.4126 10.13 16.4126 10.544C16.4126 10.958 16.0766 11.294 15.6626 11.294ZM16.0356 16.748L13.9716 18.674C13.8266 18.809 13.6426 18.875 13.4596 18.875C13.2586 18.875 13.0586 18.795 12.9116 18.637C12.6286 18.334 12.6446 17.859 12.9476 17.576L13.6186 16.95H8.69162C8.27762 16.95 7.94162 16.614 7.94162 16.2C7.94162 15.786 8.27762 15.45 8.69162 15.45H13.6196L12.9486 14.824C12.6446 14.542 12.6286 14.067 12.9106 13.764C13.1936 13.462 13.6676 13.444 13.9706 13.727L16.0346 15.65C16.1866 15.792 16.2736 15.991 16.2736 16.199C16.2736 16.407 16.1866 16.606 16.0356 16.748ZM19.4526 5.327C18.7296 4.602 17.6976 4.193 16.4706 4.091V3.125C16.4706 2.711 16.1346 2.375 15.7206 2.375C15.3066 2.375 14.9706 2.711 14.9706 3.125V6.674C14.9056 6.693 14.8406 6.715 14.7696 6.715C14.3556 6.715 14.0196 6.379 14.0196 5.965V4.247C14.0196 4.13654 13.9301 4.047 13.8196 4.047H9.19762V3.125C9.19762 2.711 8.86162 2.375 8.44762 2.375C8.03362 2.375 7.69762 2.711 7.69762 3.125V6.674C7.63262 6.693 7.56762 6.715 7.49662 6.715C7.08262 6.715 6.74662 6.379 6.74662 5.965V4.50003C6.74662 4.36996 6.62399 4.27444 6.49946 4.31203C4.5908 4.88814 3.48462 6.438 3.48462 8.725V16.87C3.48462 19.848 5.27662 21.625 8.27762 21.625H15.8906C18.8916 21.625 20.6836 19.873 20.6836 16.939V8.726C20.6876 7.314 20.2616 6.139 19.4526 5.327Z" fill="#403CA5"/>
</g>
<defs>
<clipPath id="clip0_80_388">
<rect width="24" height="24" fill="white"/>
</clipPath>
</defs>
</svg>
