<svg width="280" height="230" viewBox="0 0 280 230" fill="none" xmlns="http://www.w3.org/2000/svg">
<g clip-path="url(#clip0_119_2289)">
<path d="M207.436 227.77H72.5645V229.595C72.5645 229.819 72.7894 230 73.0664 230H206.936C207.213 230 207.438 229.819 207.438 229.595V227.77H207.436Z" fill="url(#paint0_linear_119_2289)"/>
<path d="M207.072 227.45L197.441 223.474C189.098 220.03 183.26 213.567 181.71 206.06L174.907 173.107H105.092L98.2892 206.06C96.7386 213.567 90.9024 220.03 82.5581 223.474L72.9273 227.45C72.3026 227.708 72.5275 228.476 73.2285 228.476H206.767C207.468 228.476 207.694 227.708 207.068 227.45H207.072Z" fill="url(#paint1_linear_119_2289)"/>
<path d="M271.762 17.5464H8.2383C3.68841 17.5464 0 21.253 0 25.8253V179.674C0 184.247 3.68841 187.953 8.2383 187.953H271.762C276.312 187.953 280 184.247 280 179.674V25.8253C280 21.253 276.312 17.5464 271.762 17.5464Z" fill="url(#paint2_linear_119_2289)"/>
<mask id="mask0_119_2289" style="mask-type:luminance" maskUnits="userSpaceOnUse" x="9" y="27" width="262" height="152">
<path d="M268.495 27.04H11.5054C10.3687 27.04 9.44727 27.9661 9.44727 29.1084V176.392C9.44727 177.534 10.3687 178.46 11.5054 178.46H268.495C269.632 178.46 270.554 177.534 270.554 176.392V29.1084C270.554 27.9661 269.632 27.04 268.495 27.04Z" fill="white"/>
</mask>
<g mask="url(#mask0_119_2289)">
<path d="M3.18359 172.433V184.202H275.892V172.433V21.7412H3.18359V172.433Z" fill="#F47222"/>
</g>
<path d="M260.218 0H20.2139C18.7825 0 17.6221 1.16611 17.6221 2.60457V167.475C17.6221 168.914 18.7825 170.08 20.2139 170.08H260.218C261.649 170.08 262.81 168.914 262.81 167.475V2.60457C262.81 1.16611 261.649 0 260.218 0Z" fill="white"/>
<path d="M20.2139 0H260.218C261.649 0 262.81 1.16776 262.81 2.60457V29.0968H17.6221V2.60457C17.6221 1.16589 18.7841 0 20.2139 0Z" fill="#CCCCCC"/>
<path d="M88.6507 10.5378L85.9864 5.70423C85.529 4.87465 84.6608 4.36084 83.7181 4.36084H49.2571C48.3144 4.36084 47.4443 4.87465 46.9888 5.70423L44.3245 10.5378C43.8671 11.3674 42.9989 11.8812 42.0562 11.8812H17.6221V29.0987H262.81V11.8812H90.919C89.9763 11.8812 89.1062 11.3674 88.6507 10.5378Z" fill="#E6E6E6"/>
<path d="M241.125 16.73H42.7979V24.1009H241.125V16.73Z" fill="white"/>
<path d="M255.151 16.73H247.067C246.725 16.73 246.448 17.0085 246.448 17.3522V17.7632C246.448 18.1068 246.725 18.3854 247.067 18.3854H255.151C255.493 18.3854 255.77 18.1068 255.77 17.7632V17.3522C255.77 17.0085 255.493 16.73 255.151 16.73Z" fill="#CCCCCC"/>
<path d="M255.151 19.5869H247.067C246.725 19.5869 246.448 19.8655 246.448 20.2091V20.6201C246.448 20.9638 246.725 21.2423 247.067 21.2423H255.151C255.493 21.2423 255.77 20.9638 255.77 20.6201V20.2091C255.77 19.8655 255.493 19.5869 255.151 19.5869Z" fill="#CCCCCC"/>
<path d="M255.151 22.4434H247.067C246.725 22.4434 246.448 22.7219 246.448 23.0655V23.4766C246.448 23.8202 246.725 24.0988 247.067 24.0988H255.151C255.493 24.0988 255.77 23.8202 255.77 23.4766V23.0655C255.77 22.7219 255.493 22.4434 255.151 22.4434Z" fill="#CCCCCC"/>
<path d="M237.793 22.7909L236.445 22.079C236.412 22.0622 236.371 22.0622 236.338 22.079L234.99 22.7909C234.906 22.8357 234.807 22.7628 234.822 22.6694L235.081 21.1616C235.086 21.1242 235.075 21.085 235.047 21.0588L233.956 19.9901C233.887 19.9228 233.926 19.807 234.019 19.7921L235.527 19.5716C235.564 19.566 235.598 19.5417 235.614 19.5081L236.289 18.1348C236.332 18.0488 236.453 18.0488 236.496 18.1348L237.17 19.5081C237.187 19.5417 237.219 19.566 237.258 19.5716L238.766 19.7921C238.86 19.8051 238.898 19.9228 238.829 19.9901L237.738 21.0588C237.71 21.085 237.698 21.1242 237.704 21.1616L237.961 22.6694C237.977 22.7647 237.879 22.8357 237.793 22.7909ZM234.822 20.2722L235.48 20.9168C235.508 20.943 235.519 20.9822 235.514 21.0196L235.358 21.9295C235.341 22.0248 235.439 22.0958 235.525 22.051L236.339 21.6212C236.373 21.6026 236.414 21.6026 236.447 21.6212L237.262 22.051C237.345 22.0958 237.444 22.0229 237.429 21.9295L237.273 21.0196C237.267 20.9822 237.278 20.943 237.306 20.9168L237.964 20.2722C238.033 20.205 237.994 20.0891 237.901 20.0742L236.992 19.9415C236.955 19.9359 236.921 19.9116 236.905 19.878L236.497 19.0503C236.455 18.9643 236.334 18.9643 236.291 19.0503L235.884 19.878C235.867 19.9116 235.836 19.9359 235.796 19.9415L234.887 20.0742C234.792 20.0873 234.755 20.205 234.824 20.2722H234.822Z" fill="#CCCCCC"/>
<path d="M49.0858 20.6142C48.9836 21.7109 48.0725 22.576 46.9551 22.576C45.7689 22.576 44.804 21.6063 44.804 20.4142C44.804 19.2222 45.7689 18.2525 46.9551 18.2525C47.4404 18.2525 47.8866 18.4169 48.2455 18.6916L47.6654 19.0353L48.4834 19.5006L49.3015 19.9658L49.2959 19.2128V19.0204L49.2866 18.075L48.7047 18.4188C48.2473 18.0058 47.6412 17.7686 46.957 17.7686C45.5049 17.7686 44.3262 18.955 44.3262 20.4142C44.3262 21.8735 45.5068 23.058 46.957 23.058C48.4072 23.058 49.4763 21.9781 49.5785 20.6142H49.0877H49.0858Z" fill="#CCCCCC"/>
<path d="M29.1529 19.6614H23.4432L24.9919 18.105L23.9303 17.04L20.5967 20.3901L20.619 20.4144L20.5967 20.4368L23.9303 23.7888L24.9919 22.7238L23.4432 21.1674H29.1529V19.6614Z" fill="#CCCCCC"/>
<path d="M31.8301 19.6614H37.5417L35.9929 18.105L37.0527 17.04L40.3882 20.3901L40.364 20.4144L40.3882 20.4368L37.0527 23.7888L35.9929 22.7238L37.5417 21.1674H31.8301V19.6614Z" fill="#CCCCCC"/>
<path d="M93.2341 7.60631H91.795V6.16016H90.8784V7.60631H89.4375V8.52744H90.8784V9.97359H91.795V8.52744H93.2341V7.60631Z" fill="#B3B3B3"/>
<path d="M85.3975 8.70144L84.7653 8.06805L85.3975 7.43279L84.994 7.02734L84.3619 7.6626L83.7297 7.02734L83.3281 7.43279L83.9603 8.06805L83.3281 8.70144L83.7297 9.10689L84.3619 8.47163L84.994 9.10689L85.3975 8.70144Z" fill="#CCCCCC"/>
<path d="M137.605 115.119V122.067H135.807V115.119H137.605Z" fill="url(#paint3_linear_119_2289)"/>
<path d="M138.896 117.338H140.557V117.938C140.784 117.662 141.012 117.477 141.245 117.381C141.477 117.286 141.748 117.239 142.061 117.239C142.392 117.239 142.674 117.293 142.909 117.4C143.145 117.508 143.344 117.66 143.509 117.856C143.643 118.017 143.736 118.194 143.784 118.39C143.833 118.586 143.857 118.811 143.857 119.063V122.067H142.197V119.679C142.197 119.446 142.18 119.257 142.146 119.113C142.113 118.969 142.053 118.854 141.968 118.768C141.895 118.695 141.812 118.642 141.721 118.611C141.629 118.581 141.531 118.564 141.427 118.564C141.146 118.564 140.93 118.648 140.78 118.818C140.629 118.988 140.555 119.229 140.555 119.541V122.067H138.895V117.34L138.896 117.338Z" fill="url(#paint4_linear_119_2289)"/>
<path d="M146.84 118.73V122.067H145.179V118.73H144.629V117.338H145.179V115.918H146.84V117.338H147.784V118.73H146.84Z" fill="url(#paint5_linear_119_2289)"/>
<path d="M149.994 119.984C149.994 120.703 150.331 121.062 151.004 121.062C151.365 121.062 151.636 120.914 151.82 120.619H153.425C153.101 121.701 152.291 122.241 150.995 122.241C150.597 122.241 150.234 122.181 149.903 122.062C149.572 121.942 149.29 121.772 149.056 121.55C148.819 121.329 148.639 121.064 148.511 120.757C148.382 120.451 148.317 120.105 148.317 119.726C148.317 119.347 148.379 118.979 148.501 118.661C148.624 118.345 148.797 118.076 149.024 117.854C149.251 117.633 149.524 117.462 149.844 117.342C150.165 117.222 150.526 117.163 150.931 117.163C151.337 117.163 151.686 117.222 152.004 117.342C152.322 117.462 152.592 117.635 152.811 117.863C153.031 118.091 153.2 118.37 153.315 118.697C153.43 119.025 153.49 119.395 153.49 119.806V119.982H149.996L149.994 119.984ZM151.939 119.016C151.883 118.783 151.772 118.596 151.599 118.454C151.428 118.312 151.22 118.243 150.976 118.243C150.72 118.243 150.509 118.31 150.348 118.444C150.186 118.579 150.084 118.769 150.041 119.016H151.939Z" fill="url(#paint6_linear_119_2289)"/>
<path d="M154.433 117.338H156.093V118.112C156.269 117.83 156.487 117.613 156.744 117.461C157 117.31 157.299 117.235 157.642 117.235H157.783C157.835 117.235 157.894 117.241 157.961 117.254V118.848C157.742 118.738 157.502 118.682 157.246 118.682C156.861 118.682 156.571 118.797 156.379 119.027C156.186 119.257 156.091 119.593 156.091 120.036V122.063H154.431V117.336L154.433 117.338Z" fill="url(#paint7_linear_119_2289)"/>
<path d="M158.705 117.338H160.365V117.938C160.592 117.662 160.821 117.477 161.053 117.381C161.286 117.286 161.557 117.239 161.869 117.239C162.2 117.239 162.483 117.293 162.717 117.4C162.953 117.508 163.152 117.66 163.318 117.856C163.452 118.017 163.545 118.194 163.593 118.39C163.641 118.586 163.665 118.811 163.665 119.063V122.067H162.005V119.679C162.005 119.446 161.988 119.257 161.955 119.113C161.921 118.969 161.862 118.854 161.776 118.768C161.704 118.695 161.62 118.642 161.529 118.611C161.438 118.581 161.34 118.564 161.235 118.564C160.955 118.564 160.739 118.648 160.588 118.818C160.438 118.988 160.363 119.229 160.363 119.541V122.067H158.703V117.34L158.705 117.338Z" fill="url(#paint8_linear_119_2289)"/>
<path d="M168.427 117.338H170.096V122.066H168.427V121.54C168.071 121.989 167.592 122.213 166.988 122.213C166.645 122.213 166.329 122.15 166.043 122.024C165.755 121.899 165.506 121.722 165.292 121.494C165.078 121.266 164.911 120.999 164.792 120.692C164.673 120.386 164.613 120.05 164.613 119.687C164.613 119.349 164.671 119.027 164.788 118.725C164.903 118.42 165.067 118.155 165.273 117.927C165.482 117.699 165.729 117.52 166.017 117.387C166.305 117.254 166.623 117.189 166.971 117.189C167.558 117.189 168.044 117.394 168.428 117.806V117.335L168.427 117.338ZM166.335 119.689C166.335 119.842 166.363 119.986 166.417 120.117C166.473 120.249 166.547 120.363 166.642 120.462C166.737 120.561 166.85 120.638 166.982 120.692C167.114 120.748 167.255 120.774 167.408 120.774C167.56 120.774 167.694 120.746 167.824 120.692C167.956 120.636 168.068 120.56 168.163 120.462C168.257 120.363 168.334 120.251 168.391 120.121C168.449 119.992 168.479 119.853 168.479 119.706C168.479 119.558 168.449 119.418 168.391 119.287C168.334 119.155 168.257 119.041 168.163 118.942C168.068 118.843 167.954 118.766 167.824 118.712C167.692 118.656 167.553 118.63 167.408 118.63C167.263 118.63 167.112 118.658 166.982 118.712C166.85 118.768 166.737 118.844 166.642 118.942C166.547 119.041 166.473 119.153 166.417 119.278C166.361 119.403 166.335 119.541 166.335 119.689Z" fill="url(#paint9_linear_119_2289)"/>
<path d="M172.884 114.418V122.067H171.224V114.418H172.884Z" fill="url(#paint10_linear_119_2289)"/>
<path d="M181.092 116.897C180.897 116.739 180.702 116.619 180.505 116.542C180.309 116.466 180.12 116.427 179.936 116.427C179.703 116.427 179.514 116.483 179.367 116.593C179.22 116.703 179.147 116.847 179.147 117.026C179.147 117.15 179.185 117.25 179.257 117.331C179.33 117.411 179.426 117.48 179.545 117.538C179.664 117.596 179.798 117.647 179.949 117.69C180.099 117.733 180.246 117.779 180.393 117.828C180.981 118.024 181.41 118.287 181.682 118.616C181.953 118.945 182.089 119.373 182.089 119.902C182.089 120.259 182.029 120.58 181.91 120.87C181.791 121.159 181.617 121.406 181.388 121.611C181.159 121.817 180.877 121.978 180.544 122.092C180.211 122.206 179.834 122.262 179.411 122.262C178.538 122.262 177.727 122 176.981 121.479L177.751 120.023C178.021 120.262 178.287 120.442 178.549 120.558C178.811 120.673 179.071 120.733 179.328 120.733C179.622 120.733 179.839 120.666 179.984 120.53C180.127 120.395 180.2 120.24 180.2 120.068C180.2 119.963 180.181 119.874 180.144 119.795C180.107 119.719 180.045 119.648 179.96 119.584C179.874 119.519 179.763 119.459 179.625 119.405C179.488 119.349 179.32 119.289 179.125 119.22C178.893 119.147 178.666 119.065 178.443 118.975C178.22 118.885 178.021 118.768 177.846 118.62C177.671 118.472 177.532 118.287 177.424 118.063C177.316 117.839 177.264 117.555 177.264 117.211C177.264 116.867 177.32 116.555 177.433 116.275C177.547 115.995 177.705 115.756 177.911 115.556C178.116 115.356 178.367 115.201 178.662 115.091C178.958 114.98 179.291 114.924 179.657 114.924C179.999 114.924 180.356 114.973 180.73 115.066C181.103 115.162 181.46 115.302 181.802 115.485L181.087 116.895L181.092 116.897Z" fill="url(#paint11_linear_119_2289)"/>
<path d="M184.558 119.984C184.558 120.703 184.894 121.062 185.567 121.062C185.928 121.062 186.2 120.914 186.384 120.619H187.988C187.665 121.701 186.854 122.241 185.558 122.241C185.16 122.241 184.798 122.181 184.467 122.062C184.136 121.942 183.853 121.772 183.619 121.55C183.383 121.329 183.203 121.064 183.074 120.757C182.946 120.451 182.881 120.105 182.881 119.726C182.881 119.347 182.942 118.979 183.065 118.661C183.188 118.345 183.361 118.076 183.587 117.854C183.814 117.633 184.088 117.462 184.407 117.342C184.729 117.222 185.09 117.163 185.495 117.163C185.9 117.163 186.25 117.222 186.568 117.342C186.886 117.462 187.155 117.635 187.375 117.863C187.594 118.091 187.763 118.37 187.879 118.697C187.994 119.025 188.053 119.395 188.053 119.806V119.982H184.56L184.558 119.984ZM186.503 119.016C186.447 118.783 186.335 118.596 186.162 118.454C185.991 118.312 185.783 118.243 185.54 118.243C185.283 118.243 185.073 118.31 184.911 118.444C184.749 118.579 184.647 118.769 184.604 119.016H186.503Z" fill="url(#paint12_linear_119_2289)"/>
<path d="M188.998 117.338H190.658V118.112C190.835 117.83 191.052 117.613 191.309 117.461C191.566 117.31 191.865 117.235 192.207 117.235H192.348C192.4 117.235 192.46 117.241 192.527 117.254V118.848C192.307 118.738 192.068 118.682 191.811 118.682C191.426 118.682 191.136 118.797 190.945 119.027C190.751 119.257 190.656 119.593 190.656 120.036V122.063H188.996V117.336L188.998 117.338Z" fill="url(#paint13_linear_119_2289)"/>
<path d="M194.858 117.338L195.977 119.762L197.115 117.338H198.967L196.518 122.065H195.408L192.987 117.338H194.858Z" fill="url(#paint14_linear_119_2289)"/>
<path d="M200.81 119.984C200.81 120.703 201.146 121.062 201.819 121.062C202.18 121.062 202.452 120.914 202.636 120.619H204.24C203.917 121.701 203.106 122.241 201.81 122.241C201.412 122.241 201.05 122.181 200.719 122.062C200.388 121.942 200.105 121.772 199.871 121.55C199.635 121.329 199.454 121.064 199.326 120.757C199.198 120.451 199.133 120.105 199.133 119.726C199.133 119.347 199.194 118.979 199.317 118.661C199.44 118.345 199.612 118.076 199.839 117.854C200.066 117.633 200.339 117.462 200.659 117.342C200.981 117.222 201.342 117.163 201.747 117.163C202.152 117.163 202.502 117.222 202.82 117.342C203.138 117.462 203.407 117.635 203.627 117.863C203.846 118.091 204.015 118.37 204.13 118.697C204.246 119.025 204.305 119.395 204.305 119.806V119.982H200.812L200.81 119.984ZM202.755 119.016C202.699 118.783 202.587 118.596 202.414 118.454C202.243 118.312 202.035 118.243 201.792 118.243C201.535 118.243 201.325 118.31 201.163 118.444C201.001 118.579 200.899 118.769 200.856 119.016H202.755Z" fill="url(#paint15_linear_119_2289)"/>
<path d="M205.248 117.338H206.908V118.112C207.085 117.83 207.302 117.613 207.559 117.461C207.816 117.31 208.115 117.235 208.457 117.235H208.598C208.65 117.235 208.71 117.241 208.777 117.254V118.848C208.557 118.738 208.318 118.682 208.061 118.682C207.676 118.682 207.386 118.797 207.195 119.027C207.001 119.257 206.906 119.593 206.906 120.036V122.063H205.246V117.336L205.248 117.338Z" fill="url(#paint16_linear_119_2289)"/>
<path d="M216.721 116.647H214.585V117.807H216.602V119.337H214.585V120.535H216.721V122.065H212.787V115.117H216.721V116.647Z" fill="url(#paint17_linear_119_2289)"/>
<path d="M217.858 117.338H219.519V118.112C219.695 117.83 219.913 117.613 220.169 117.461C220.426 117.31 220.725 117.235 221.067 117.235H221.209C221.261 117.235 221.32 117.241 221.387 117.254V118.848C221.168 118.738 220.928 118.682 220.671 118.682C220.286 118.682 219.996 118.797 219.805 119.027C219.612 119.257 219.517 119.593 219.517 120.036V122.063H217.856V117.336L217.858 117.338Z" fill="url(#paint18_linear_119_2289)"/>
<path d="M222.131 117.338H223.791V118.112C223.968 117.83 224.185 117.613 224.442 117.461C224.698 117.31 224.998 117.235 225.34 117.235H225.481C225.533 117.235 225.593 117.241 225.66 117.254V118.848C225.44 118.738 225.2 118.682 224.944 118.682C224.559 118.682 224.269 118.797 224.077 119.027C223.884 119.257 223.789 119.593 223.789 120.036V122.063H222.129V117.336L222.131 117.338Z" fill="url(#paint19_linear_119_2289)"/>
<path d="M226.259 119.661C226.259 119.311 226.329 118.982 226.469 118.68C226.61 118.375 226.805 118.112 227.056 117.888C227.307 117.663 227.605 117.486 227.951 117.357C228.296 117.228 228.674 117.163 229.083 117.163C229.492 117.163 229.86 117.226 230.206 117.351C230.552 117.476 230.851 117.652 231.104 117.876C231.357 118.101 231.554 118.368 231.695 118.678C231.836 118.988 231.905 119.33 231.905 119.706C231.905 120.081 231.833 120.423 231.69 120.733C231.546 121.043 231.349 121.31 231.098 121.535C230.847 121.759 230.546 121.933 230.195 122.056C229.843 122.179 229.462 122.241 229.053 122.241C228.644 122.241 228.276 122.179 227.934 122.056C227.592 121.933 227.296 121.759 227.049 121.531C226.802 121.303 226.606 121.032 226.467 120.714C226.326 120.399 226.257 120.046 226.257 119.659L226.259 119.661ZM228.01 119.679C228.01 119.84 228.04 119.986 228.097 120.117C228.155 120.249 228.231 120.363 228.326 120.462C228.421 120.561 228.534 120.638 228.666 120.692C228.798 120.748 228.936 120.774 229.083 120.774C229.23 120.774 229.369 120.746 229.499 120.692C229.631 120.636 229.743 120.559 229.84 120.462C229.934 120.363 230.011 120.249 230.068 120.117C230.126 119.984 230.156 119.842 230.156 119.689C230.156 119.535 230.126 119.401 230.068 119.27C230.011 119.138 229.934 119.024 229.84 118.925C229.745 118.825 229.631 118.749 229.499 118.695C229.367 118.639 229.228 118.612 229.083 118.612C228.938 118.612 228.797 118.641 228.666 118.695C228.534 118.751 228.421 118.827 228.326 118.925C228.231 119.024 228.155 119.136 228.097 119.266C228.04 119.395 228.01 119.534 228.01 119.681V119.679Z" fill="url(#paint20_linear_119_2289)"/>
<path d="M232.861 117.338H234.522V118.112C234.698 117.83 234.916 117.613 235.172 117.461C235.429 117.31 235.728 117.235 236.07 117.235H236.212C236.264 117.235 236.323 117.241 236.39 117.254V118.848C236.171 118.738 235.931 118.682 235.674 118.682C235.289 118.682 234.999 118.797 234.808 119.027C234.615 119.257 234.52 119.593 234.52 120.036V122.063H232.859V117.336L232.861 117.338Z" fill="url(#paint21_linear_119_2289)"/>
<path d="M163.456 81.6568H151.04L150.421 85.6253C150.991 85.5617 151.514 85.5057 151.99 85.4571C152.466 85.4085 152.957 85.3861 153.464 85.3861C155.271 85.3861 156.952 85.7056 158.506 86.3427C160.061 86.9799 161.392 87.8562 162.502 88.9716C163.612 90.087 164.484 91.4267 165.118 92.9868C165.752 94.5488 166.07 96.2547 166.07 98.1025C166.07 100.048 165.713 101.8 164.999 103.362C164.285 104.924 163.277 106.254 161.978 107.353C160.676 108.452 159.092 109.298 157.22 109.887C155.348 110.475 153.271 110.77 150.988 110.77C148.831 110.77 146.778 110.507 144.828 109.982C142.878 109.457 141.046 108.652 139.334 107.568L140.714 98.7714C142.299 100.143 143.917 101.185 145.566 101.903C147.215 102.62 148.785 102.979 150.276 102.979C152.178 102.979 153.684 102.462 154.795 101.425C155.905 100.389 156.461 99.1059 156.461 97.5756C156.461 95.7913 155.716 94.3489 154.225 93.2484C152.734 92.1479 150.783 91.5986 148.374 91.5986C147.295 91.5986 146.185 91.7182 145.044 91.9573C143.902 92.1965 142.775 92.572 141.665 93.0802L144.663 73.7197H163.454V81.6549L163.456 81.6568Z" fill="url(#paint22_linear_119_2289)"/>
<path d="M170.115 91.696C170.115 88.828 170.487 86.2215 171.233 83.8804C171.978 81.5374 173.023 79.5382 174.373 77.8809C175.721 76.2236 177.322 74.94 179.177 74.032C181.033 73.1239 183.085 72.6699 185.337 72.6699C187.588 72.6699 189.602 73.1239 191.474 74.032C193.345 74.94 194.947 76.2236 196.278 77.8809C197.61 79.5382 198.649 81.5374 199.395 83.8804C200.14 86.2234 200.512 88.828 200.512 91.696C200.512 94.564 200.138 97.1704 199.395 99.5116C198.649 101.855 197.612 103.861 196.278 105.535C194.947 107.209 193.345 108.499 191.474 109.409C189.602 110.317 187.557 110.771 185.337 110.771C183.117 110.771 181.031 110.317 179.177 109.409C177.322 108.501 175.721 107.209 174.373 105.535C173.025 103.861 171.978 101.855 171.233 99.5116C170.487 97.1686 170.115 94.564 170.115 91.696ZM179.345 91.696C179.345 93.2897 179.488 94.7396 179.772 96.0457C180.058 97.3535 180.462 98.4839 180.986 99.4406C181.509 100.397 182.135 101.137 182.866 101.664C183.595 102.189 184.42 102.452 185.341 102.452C186.261 102.452 187.045 102.189 187.791 101.664C188.537 101.139 189.163 100.397 189.671 99.4406C190.178 98.4839 190.574 97.3535 190.861 96.0457C191.147 94.7396 191.288 93.2897 191.288 91.696C191.288 90.1022 191.145 88.6916 190.861 87.3687C190.574 86.0459 190.178 84.9155 189.671 83.9738C189.163 83.034 188.537 82.2997 187.791 81.7747C187.045 81.2497 186.229 80.9862 185.341 80.9862C184.452 80.9862 183.597 81.2497 182.866 81.7747C182.135 82.2997 181.511 83.034 180.986 83.9738C180.464 84.9136 180.058 86.0459 179.772 87.3687C179.488 88.6916 179.345 90.134 179.345 91.696Z" fill="url(#paint23_linear_119_2289)"/>
<path d="M202.465 91.696C202.465 88.828 202.837 86.2215 203.582 83.8804C204.328 81.5374 205.373 79.5382 206.723 77.8809C208.07 76.2236 209.671 74.94 211.527 74.032C213.382 73.1239 215.435 72.6699 217.686 72.6699C219.938 72.6699 221.952 73.1239 223.824 74.032C225.694 74.94 227.297 76.2236 228.628 77.8809C229.959 79.5382 230.999 81.5374 231.744 83.8804C232.49 86.2234 232.862 88.828 232.862 91.696C232.862 94.564 232.488 97.1704 231.744 99.5116C230.999 101.855 229.961 103.861 228.628 105.535C227.297 107.209 225.694 108.499 223.824 109.409C221.952 110.317 219.906 110.771 217.686 110.771C215.467 110.771 213.38 110.317 211.527 109.409C209.671 108.501 208.07 107.209 206.723 105.535C205.375 103.861 204.328 101.855 203.582 99.5116C202.837 97.1686 202.465 94.564 202.465 91.696ZM211.694 91.696C211.694 93.2897 211.837 94.7396 212.122 96.0457C212.408 97.3535 212.812 98.4839 213.336 99.4406C213.858 100.397 214.485 101.137 215.216 101.664C215.944 102.189 216.77 102.452 217.69 102.452C218.611 102.452 219.395 102.189 220.141 101.664C220.886 101.139 221.513 100.397 222.02 99.4406C222.528 98.4839 222.924 97.3535 223.21 96.0457C223.497 94.7396 223.638 93.2897 223.638 91.696C223.638 90.1022 223.495 88.6916 223.21 87.3687C222.924 86.0459 222.528 84.9155 222.02 83.9738C221.513 83.034 220.886 82.2997 220.141 81.7747C219.395 81.2497 218.579 80.9862 217.69 80.9862C216.801 80.9862 215.946 81.2497 215.216 81.7747C214.485 82.2997 213.86 83.034 213.336 83.9738C212.813 84.9136 212.408 86.0459 212.122 87.3687C211.837 88.6916 211.694 90.134 211.694 91.696Z" fill="url(#paint24_linear_119_2289)"/>
<path d="M108.413 140.824L47.4071 140.759C45.546 140.757 44.04 139.24 44.04 137.37L44.0847 57.493C44.0847 55.619 45.6018 54.1018 47.4666 54.1074L108.472 54.3036C110.329 54.3092 111.834 55.8245 111.832 57.6929L111.787 137.441C111.787 139.313 110.276 140.828 108.413 140.826V140.824Z" fill="#F47222"/>
<path d="M104.045 135.083L51.8057 134.998V133.769L104.045 133.853V135.083Z" fill="#F47222"/>
<path d="M104.049 126.892L51.8115 126.798V125.567L104.049 125.664V126.892Z" fill="#F47222"/>
<path d="M73.8749 129.296L104.047 129.348L104.045 132.625L73.873 132.575L73.8749 129.296Z" fill="url(#paint25_linear_119_2289)"/>
<path d="M73.875 128.705L104.049 128.76V128.227L73.875 128.175V128.705Z" fill="url(#paint26_linear_119_2289)"/>
<path d="M57.2441 128.676L60.9775 128.683V128.151L57.2441 128.145V128.676Z" fill="url(#paint27_linear_119_2289)"/>
<path d="M62.6748 128.685L66.4082 128.692L66.41 128.16L62.6748 128.154V128.685Z" fill="url(#paint28_linear_119_2289)"/>
<path d="M51.8096 128.666L55.5448 128.674V128.141L51.8096 128.136V128.666Z" fill="url(#paint29_linear_119_2289)"/>
<path d="M66.4082 129.283L51.8095 129.259L51.8076 132.538L66.4064 132.562L66.4082 129.283Z" fill="url(#paint30_linear_119_2289)"/>
<path d="M71.4986 129.292L68.7841 129.287L68.7822 132.566L71.4967 132.571L71.4986 129.292Z" fill="white"/>
<path d="M104.049 126.892L51.8115 126.799V125.567L104.049 125.665V126.892Z" fill="#F47222"/>
<path d="M104.055 118.703L51.8154 118.598V117.367L104.055 117.473V118.703Z" fill="#F47222"/>
<path d="M73.8788 121.1L104.052 121.16L104.051 124.435L73.877 124.379L73.8788 121.1Z" fill="url(#paint31_linear_119_2289)"/>
<path d="M73.8789 120.51L104.053 120.569V120.037L73.8789 119.979V120.51Z" fill="url(#paint32_linear_119_2289)"/>
<path d="M57.248 120.478L60.9833 120.485V119.953L57.248 119.945V120.478Z" fill="url(#paint33_linear_119_2289)"/>
<path d="M62.6807 120.487L66.414 120.495V119.964L62.6807 119.957V120.487Z" fill="url(#paint34_linear_119_2289)"/>
<path d="M51.8135 120.467L55.5506 120.474V119.942L51.8153 119.934L51.8135 120.467Z" fill="url(#paint35_linear_119_2289)"/>
<path d="M66.414 121.087L51.8134 121.057L51.8115 124.338L66.4122 124.366L66.414 121.087Z" fill="url(#paint36_linear_119_2289)"/>
<path d="M71.5043 121.096L68.788 121.091L68.7861 124.37L71.5025 124.375L71.5043 121.096Z" fill="white"/>
<path d="M104.055 118.703L51.8154 118.598V117.367L104.055 117.473V118.703Z" fill="#F47222"/>
<path d="M104.059 110.511L51.8213 110.395V109.166L104.059 109.282V110.511Z" fill="#F47222"/>
<path d="M73.8847 112.903L104.056 112.968L104.055 116.245L73.8828 116.182L73.8847 112.903Z" fill="url(#paint37_linear_119_2289)"/>
<path d="M73.8848 112.312L104.058 112.378V111.847L73.8848 111.782V112.312Z" fill="url(#paint38_linear_119_2289)"/>
<path d="M57.252 112.277L60.9872 112.285V111.754L57.2538 111.745L57.252 112.277Z" fill="url(#paint39_linear_119_2289)"/>
<path d="M62.6846 112.288L66.4179 112.298L66.4198 111.765L62.6846 111.758V112.288Z" fill="url(#paint40_linear_119_2289)"/>
<path d="M51.8193 112.266L55.5546 112.273V111.741L51.8193 111.733V112.266Z" fill="url(#paint41_linear_119_2289)"/>
<path d="M66.418 112.888L51.8192 112.856L51.8174 116.137L66.4161 116.167L66.418 112.888Z" fill="url(#paint42_linear_119_2289)"/>
<path d="M71.5083 112.899L68.7939 112.894L68.792 116.173L71.5065 116.178L71.5083 112.899Z" fill="white"/>
<path d="M104.058 110.512L51.8203 110.396V109.167L104.058 109.282V110.512Z" fill="#F47222"/>
<path d="M104.063 102.32L51.8242 102.195V100.966L104.063 101.093V102.32Z" fill="#F47222"/>
<path d="M73.8876 104.708L104.061 104.778L104.059 108.055L73.8857 107.986L73.8876 104.708Z" fill="url(#paint43_linear_119_2289)"/>
<path d="M73.8877 104.116L104.061 104.189V103.656L73.8877 103.585V104.116Z" fill="url(#paint44_linear_119_2289)"/>
<path d="M57.2568 104.077L60.9921 104.086V103.554L57.2568 103.546V104.077Z" fill="url(#paint45_linear_119_2289)"/>
<path d="M62.6895 104.09L66.4228 104.1V103.567L62.6895 103.56V104.09Z" fill="url(#paint46_linear_119_2289)"/>
<path d="M51.8223 104.066L55.5593 104.073V103.543L51.8241 103.533L51.8223 104.066Z" fill="url(#paint47_linear_119_2289)"/>
<path d="M66.4228 104.69L51.8222 104.656L51.8203 107.937L66.4209 107.969L66.4228 104.69Z" fill="url(#paint48_linear_119_2289)"/>
<path d="M71.5131 104.703L68.7968 104.695L68.7949 107.974L71.5113 107.98L71.5131 104.703Z" fill="white"/>
<path d="M104.063 102.32L51.8242 102.195V100.965L104.063 101.092V102.32Z" fill="#F47222"/>
<path d="M104.067 94.1309L51.8301 93.9945V92.7632L104.067 92.9014V94.1309Z" fill="#F47222"/>
<path d="M73.8935 96.5112L104.065 96.5878L104.063 99.8632L73.8916 99.7884L73.8935 96.5112Z" fill="url(#paint49_linear_119_2289)"/>
<path d="M73.8936 95.9207L104.065 95.9973L104.067 95.4667L73.8936 95.3882V95.9207Z" fill="url(#paint50_linear_119_2289)"/>
<path d="M57.2607 95.8777L60.996 95.8871V95.3546L57.2626 95.3452L57.2607 95.8777Z" fill="url(#paint51_linear_119_2289)"/>
<path d="M62.6934 95.8905L66.4267 95.8998L66.4286 95.3692L62.6934 95.3599V95.8905Z" fill="url(#paint52_linear_119_2289)"/>
<path d="M51.8281 95.8627L55.5633 95.872V95.3414L51.8281 95.332V95.8627Z" fill="url(#paint53_linear_119_2289)"/>
<path d="M66.4268 96.4924L51.828 96.4551L51.8262 99.7341L66.4249 99.7715L66.4268 96.4924Z" fill="url(#paint54_linear_119_2289)"/>
<path d="M71.5171 96.5037L68.8026 96.498L68.8008 99.7771L71.5153 99.7827L71.5171 96.5037Z" fill="white"/>
<path d="M104.067 94.1313L51.8301 93.995V92.7637L104.067 92.9019V94.1313Z" fill="#F47222"/>
<path d="M104.073 85.94L51.834 85.7943V84.563L104.073 84.7125V85.94Z" fill="#F47222"/>
<path d="M73.8974 88.3149L104.071 88.3971L104.069 91.6743L73.8955 91.594L73.8974 88.3149Z" fill="url(#paint55_linear_119_2289)"/>
<path d="M73.8975 87.7244L104.071 87.8066V87.276L73.8975 87.1919V87.7244Z" fill="url(#paint56_linear_119_2289)"/>
<path d="M57.2666 87.678L61.0018 87.6892V87.1567L57.2666 87.1455V87.678Z" fill="url(#paint57_linear_119_2289)"/>
<path d="M62.6992 87.6927L66.4326 87.7039V87.1714L62.6992 87.1602V87.6927Z" fill="url(#paint58_linear_119_2289)"/>
<path d="M51.832 87.6629L55.5691 87.6741V87.1416L51.8339 87.1304L51.832 87.6629Z" fill="url(#paint59_linear_119_2289)"/>
<path d="M66.4326 88.2945L51.8319 88.2534L51.8301 91.5344L66.4307 91.5736L66.4326 88.2945Z" fill="url(#paint60_linear_119_2289)"/>
<path d="M71.5229 88.3073L68.8065 88.2998L68.8047 91.5789L71.521 91.5863L71.5229 88.3073Z" fill="white"/>
<path d="M104.073 85.94L51.834 85.7943V84.563L104.073 84.7125V85.94Z" fill="#F47222"/>
<path d="M104.077 77.7505L51.8398 77.5917V76.3623L104.077 76.5211V77.7505Z" fill="#F47222"/>
<path d="M73.9032 80.1182L104.075 80.2079L104.073 83.4832L73.9014 83.3972L73.9032 80.1182Z" fill="url(#paint61_linear_119_2289)"/>
<path d="M73.9033 79.5276L104.075 79.6173L104.077 79.0848L73.9033 78.9951V79.5276Z" fill="url(#paint62_linear_119_2289)"/>
<path d="M57.2705 79.4769L61.0057 79.4881V78.9575L57.2724 78.9463L57.2705 79.4769Z" fill="url(#paint63_linear_119_2289)"/>
<path d="M62.7031 79.4939L66.4365 79.5051L66.4383 78.9726L62.7031 78.9614V79.4939Z" fill="url(#paint64_linear_119_2289)"/>
<path d="M51.8379 79.4622L55.5731 79.4734V78.9409L51.8379 78.9297V79.4622Z" fill="url(#paint65_linear_119_2289)"/>
<path d="M66.4366 80.0957L51.8378 80.0527L51.8359 83.3337L66.4347 83.3748L66.4366 80.0957Z" fill="url(#paint66_linear_119_2289)"/>
<path d="M71.5269 80.1105L68.8124 80.103L68.8105 83.3821L71.525 83.3896L71.5269 80.1105Z" fill="white"/>
<path d="M104.076 77.7505L51.8389 77.5917V76.3623L104.076 76.5211V77.7505Z" fill="#F47222"/>
<path d="M104.08 69.5592L51.8428 69.391V68.1616L104.082 68.3298L104.08 69.5592Z" fill="#F47222"/>
<path d="M73.9062 71.9209L104.08 72.0162L104.078 75.2915L73.9043 75.2L73.9062 71.9209Z" fill="url(#paint67_linear_119_2289)"/>
<path d="M73.9062 71.3308L104.08 71.4261V70.8955L73.9062 70.7983V71.3308Z" fill="url(#paint68_linear_119_2289)"/>
<path d="M57.2754 71.2781L61.0106 71.2893V70.7568L57.2754 70.7456V71.2781Z" fill="url(#paint69_linear_119_2289)"/>
<path d="M62.708 71.2952L66.4414 71.3064V70.7758L62.708 70.7627V71.2952Z" fill="url(#paint70_linear_119_2289)"/>
<path d="M51.8408 71.2615L55.5779 71.2727V70.7402L51.8427 70.729L51.8408 71.2615Z" fill="url(#paint71_linear_119_2289)"/>
<path d="M66.4414 71.8969L51.8407 71.8521L51.8389 75.133L66.4395 75.1778L66.4414 71.8969Z" fill="url(#paint72_linear_119_2289)"/>
<path d="M71.5317 71.9136L68.8153 71.9043L68.8135 75.1834L71.5298 75.1927L71.5317 71.9136Z" fill="white"/>
<path d="M104.08 69.5592L51.8428 69.391V68.1616L104.082 68.3298L104.08 69.5592Z" fill="#F47222"/>
<path d="M104.086 61.3683L51.8467 61.1908L51.8485 59.9595L104.086 60.1407V61.3683Z" fill="#F47222"/>
<path d="M73.9101 63.7241L104.084 63.825L104.082 67.1022L73.9082 67.0032L73.9101 63.7241Z" fill="url(#paint73_linear_119_2289)"/>
<path d="M73.9121 63.1337L104.084 63.2364L104.086 62.7039L73.9121 62.603V63.1337Z" fill="url(#paint74_linear_119_2289)"/>
<path d="M57.2793 63.0774L61.0145 63.0905V62.558L57.2812 62.5449L57.2793 63.0774Z" fill="url(#paint75_linear_119_2289)"/>
<path d="M62.7119 63.0965L66.4453 63.1095V62.577L62.7119 62.564V63.0965Z" fill="url(#paint76_linear_119_2289)"/>
<path d="M51.8467 63.0589L55.5819 63.072V62.5395L51.8467 62.5283V63.0589Z" fill="url(#paint77_linear_119_2289)"/>
<path d="M66.4454 63.6999L51.8466 63.6514L51.8447 66.9304L66.4435 66.979L66.4454 63.6999Z" fill="url(#paint78_linear_119_2289)"/>
<path d="M71.5357 63.7169L68.8212 63.7075L68.8193 66.9866L71.5338 66.9959L71.5357 63.7169Z" fill="white"/>
<path d="M86.91 119.154C84.4967 119.154 82.3362 117.901 81.1296 115.801C79.9229 113.7 79.9229 111.193 81.1296 109.093L98.3443 79.1292C99.551 77.0291 101.711 75.7754 104.125 75.7754C106.538 75.7754 108.698 77.0291 109.905 79.1292L127.12 109.093C128.326 111.193 128.326 113.7 127.12 115.801C125.913 117.901 123.753 119.154 121.339 119.154H86.91Z" fill="url(#paint79_linear_119_2289)"/>
<path d="M101.095 80.725C102.443 78.3801 105.81 78.3801 107.156 80.725L115.764 95.7078L124.372 110.691C125.72 113.035 124.036 115.967 121.342 115.967H86.9123C84.2183 115.967 82.5338 113.035 83.8817 110.691L92.49 95.7078L101.098 80.725H101.095Z" fill="url(#paint80_linear_119_2289)"/>
<path d="M102.635 101.154L102.202 94.6331C102.12 93.3626 102.079 92.4508 102.079 91.8978C102.079 91.1448 102.276 90.5562 102.668 90.1358C103.061 89.7136 103.578 89.5024 104.219 89.5024C104.996 89.5024 105.515 89.7734 105.777 90.3115C106.039 90.8514 106.169 91.6287 106.169 92.6451C106.169 93.2449 106.138 93.8521 106.075 94.4687L105.493 101.18C105.429 101.978 105.294 102.591 105.086 103.017C104.877 103.443 104.535 103.656 104.055 103.656C103.576 103.656 103.23 103.45 103.04 103.037C102.851 102.624 102.715 101.997 102.633 101.152L102.635 101.154ZM104.139 110.111C103.589 110.111 103.107 109.932 102.696 109.573C102.285 109.214 102.081 108.713 102.081 108.069C102.081 107.506 102.278 107.028 102.67 106.632C103.063 106.238 103.544 106.04 104.113 106.04C104.682 106.04 105.167 106.238 105.569 106.632C105.97 107.026 106.171 107.505 106.171 108.069C106.171 108.704 105.969 109.203 105.561 109.565C105.154 109.928 104.68 110.109 104.139 110.109V110.111Z" fill="#603813"/>
</g>
<defs>
<linearGradient id="paint0_linear_119_2289" x1="72.5645" y1="228.885" x2="207.436" y2="228.885" gradientUnits="userSpaceOnUse">
<stop stop-color="#212123"/>
<stop offset="0.44" stop-color="#69696A"/>
<stop offset="0.52" stop-color="#616162"/>
<stop offset="0.64" stop-color="#4D4D4E"/>
<stop offset="0.78" stop-color="#2F2F2F"/>
<stop offset="1" stop-color="#656565"/>
</linearGradient>
<linearGradient id="paint1_linear_119_2289" x1="140.001" y1="172.645" x2="140.001" y2="229.2" gradientUnits="userSpaceOnUse">
<stop stop-color="#212123"/>
<stop offset="0.49" stop-color="#69696A"/>
<stop offset="0.56" stop-color="#616162"/>
<stop offset="0.66" stop-color="#4D4D4E"/>
<stop offset="0.78" stop-color="#2F2F2F"/>
<stop offset="1" stop-color="#656565"/>
</linearGradient>
<linearGradient id="paint2_linear_119_2289" x1="2.63269" y1="14.8484" x2="285.602" y2="194.148" gradientUnits="userSpaceOnUse">
<stop stop-color="#212123"/>
<stop offset="0.44" stop-color="#69696A"/>
<stop offset="0.52" stop-color="#616162"/>
<stop offset="0.64" stop-color="#4D4D4E"/>
<stop offset="0.78" stop-color="#2F2F2F"/>
<stop offset="1" stop-color="#656565"/>
</linearGradient>
<linearGradient id="paint3_linear_119_2289" x1="136.705" y1="75.2018" x2="136.705" y2="124.392" gradientUnits="userSpaceOnUse">
<stop stop-color="#FF6C6C"/>
<stop offset="0.28" stop-color="#F85758"/>
<stop offset="0.85" stop-color="#E62425"/>
<stop offset="1" stop-color="#E21617"/>
</linearGradient>
<linearGradient id="paint4_linear_119_2289" x1="141.378" y1="75.2017" x2="141.378" y2="124.392" gradientUnits="userSpaceOnUse">
<stop stop-color="#FF6C6C"/>
<stop offset="0.28" stop-color="#F85758"/>
<stop offset="0.85" stop-color="#E62425"/>
<stop offset="1" stop-color="#E21617"/>
</linearGradient>
<linearGradient id="paint5_linear_119_2289" x1="146.206" y1="75.2019" x2="146.206" y2="124.392" gradientUnits="userSpaceOnUse">
<stop stop-color="#FF6C6C"/>
<stop offset="0.28" stop-color="#F85758"/>
<stop offset="0.85" stop-color="#E62425"/>
<stop offset="1" stop-color="#E21617"/>
</linearGradient>
<linearGradient id="paint6_linear_119_2289" x1="150.902" y1="75.2018" x2="150.902" y2="124.391" gradientUnits="userSpaceOnUse">
<stop stop-color="#FF6C6C"/>
<stop offset="0.28" stop-color="#F85758"/>
<stop offset="0.85" stop-color="#E62425"/>
<stop offset="1" stop-color="#E21617"/>
</linearGradient>
<linearGradient id="paint7_linear_119_2289" x1="156.197" y1="75.2017" x2="156.197" y2="124.391" gradientUnits="userSpaceOnUse">
<stop stop-color="#FF6C6C"/>
<stop offset="0.28" stop-color="#F85758"/>
<stop offset="0.85" stop-color="#E62425"/>
<stop offset="1" stop-color="#E21617"/>
</linearGradient>
<linearGradient id="paint8_linear_119_2289" x1="161.187" y1="75.2017" x2="161.187" y2="124.392" gradientUnits="userSpaceOnUse">
<stop stop-color="#FF6C6C"/>
<stop offset="0.28" stop-color="#F85758"/>
<stop offset="0.85" stop-color="#E62425"/>
<stop offset="1" stop-color="#E21617"/>
</linearGradient>
<linearGradient id="paint9_linear_119_2289" x1="167.354" y1="75.202" x2="167.354" y2="124.392" gradientUnits="userSpaceOnUse">
<stop stop-color="#FF6C6C"/>
<stop offset="0.28" stop-color="#F85758"/>
<stop offset="0.85" stop-color="#E62425"/>
<stop offset="1" stop-color="#E21617"/>
</linearGradient>
<linearGradient id="paint10_linear_119_2289" x1="172.055" y1="75.2018" x2="172.055" y2="124.392" gradientUnits="userSpaceOnUse">
<stop stop-color="#FF6C6C"/>
<stop offset="0.28" stop-color="#F85758"/>
<stop offset="0.85" stop-color="#E62425"/>
<stop offset="1" stop-color="#E21617"/>
</linearGradient>
<linearGradient id="paint11_linear_119_2289" x1="179.538" y1="75.2019" x2="179.538" y2="124.392" gradientUnits="userSpaceOnUse">
<stop stop-color="#FF6C6C"/>
<stop offset="0.28" stop-color="#F85758"/>
<stop offset="0.85" stop-color="#E62425"/>
<stop offset="1" stop-color="#E21617"/>
</linearGradient>
<linearGradient id="paint12_linear_119_2289" x1="185.467" y1="75.2018" x2="185.467" y2="124.391" gradientUnits="userSpaceOnUse">
<stop stop-color="#FF6C6C"/>
<stop offset="0.28" stop-color="#F85758"/>
<stop offset="0.85" stop-color="#E62425"/>
<stop offset="1" stop-color="#E21617"/>
</linearGradient>
<linearGradient id="paint13_linear_119_2289" x1="190.762" y1="75.2017" x2="190.762" y2="124.391" gradientUnits="userSpaceOnUse">
<stop stop-color="#FF6C6C"/>
<stop offset="0.28" stop-color="#F85758"/>
<stop offset="0.85" stop-color="#E62425"/>
<stop offset="1" stop-color="#E21617"/>
</linearGradient>
<linearGradient id="paint14_linear_119_2289" x1="195.977" y1="75.2019" x2="195.977" y2="124.392" gradientUnits="userSpaceOnUse">
<stop stop-color="#FF6C6C"/>
<stop offset="0.28" stop-color="#F85758"/>
<stop offset="0.85" stop-color="#E62425"/>
<stop offset="1" stop-color="#E21617"/>
</linearGradient>
<linearGradient id="paint15_linear_119_2289" x1="201.717" y1="75.2018" x2="201.717" y2="124.391" gradientUnits="userSpaceOnUse">
<stop stop-color="#FF6C6C"/>
<stop offset="0.28" stop-color="#F85758"/>
<stop offset="0.85" stop-color="#E62425"/>
<stop offset="1" stop-color="#E21617"/>
</linearGradient>
<linearGradient id="paint16_linear_119_2289" x1="207.014" y1="75.2017" x2="207.014" y2="124.391" gradientUnits="userSpaceOnUse">
<stop stop-color="#FF6C6C"/>
<stop offset="0.28" stop-color="#F85758"/>
<stop offset="0.85" stop-color="#E62425"/>
<stop offset="1" stop-color="#E21617"/>
</linearGradient>
<linearGradient id="paint17_linear_119_2289" x1="214.754" y1="-8.34018e-05" x2="214.754" y2="-8.34018e-05" gradientUnits="userSpaceOnUse">
<stop stop-color="#FF6C6C"/>
<stop offset="0.28" stop-color="#F85758"/>
<stop offset="0.85" stop-color="#E62425"/>
<stop offset="1" stop-color="#E21617"/>
</linearGradient>
<linearGradient id="paint18_linear_119_2289" x1="219.623" y1="75.2017" x2="219.623" y2="124.391" gradientUnits="userSpaceOnUse">
<stop stop-color="#FF6C6C"/>
<stop offset="0.28" stop-color="#F85758"/>
<stop offset="0.85" stop-color="#E62425"/>
<stop offset="1" stop-color="#E21617"/>
</linearGradient>
<linearGradient id="paint19_linear_119_2289" x1="223.897" y1="75.2017" x2="223.897" y2="124.391" gradientUnits="userSpaceOnUse">
<stop stop-color="#FF6C6C"/>
<stop offset="0.28" stop-color="#F85758"/>
<stop offset="0.85" stop-color="#E62425"/>
<stop offset="1" stop-color="#E21617"/>
</linearGradient>
<linearGradient id="paint20_linear_119_2289" x1="229.083" y1="75.2018" x2="229.083" y2="124.391" gradientUnits="userSpaceOnUse">
<stop stop-color="#FF6C6C"/>
<stop offset="0.28" stop-color="#F85758"/>
<stop offset="0.85" stop-color="#E62425"/>
<stop offset="1" stop-color="#E21617"/>
</linearGradient>
<linearGradient id="paint21_linear_119_2289" x1="234.628" y1="75.2017" x2="234.628" y2="124.391" gradientUnits="userSpaceOnUse">
<stop stop-color="#FF6C6C"/>
<stop offset="0.28" stop-color="#F85758"/>
<stop offset="0.85" stop-color="#E62425"/>
<stop offset="1" stop-color="#E21617"/>
</linearGradient>
<linearGradient id="paint22_linear_119_2289" x1="152.706" y1="75.2014" x2="152.706" y2="124.391" gradientUnits="userSpaceOnUse">
<stop stop-color="#FF6C6C"/>
<stop offset="0.28" stop-color="#F85758"/>
<stop offset="0.85" stop-color="#E62425"/>
<stop offset="1" stop-color="#E21617"/>
</linearGradient>
<linearGradient id="paint23_linear_119_2289" x1="185.315" y1="75.2016" x2="185.315" y2="124.391" gradientUnits="userSpaceOnUse">
<stop stop-color="#FF6C6C"/>
<stop offset="0.28" stop-color="#F85758"/>
<stop offset="0.85" stop-color="#E62425"/>
<stop offset="1" stop-color="#E21617"/>
</linearGradient>
<linearGradient id="paint24_linear_119_2289" x1="217.664" y1="75.2016" x2="217.664" y2="124.391" gradientUnits="userSpaceOnUse">
<stop stop-color="#FF6C6C"/>
<stop offset="0.28" stop-color="#F85758"/>
<stop offset="0.85" stop-color="#E62425"/>
<stop offset="1" stop-color="#E21617"/>
</linearGradient>
<linearGradient id="paint25_linear_119_2289" x1="88.9589" y1="60.2542" x2="88.9589" y2="134.619" gradientUnits="userSpaceOnUse">
<stop stop-color="#FF6C6C"/>
<stop offset="0.28" stop-color="#F85758"/>
<stop offset="0.85" stop-color="#E62425"/>
<stop offset="1" stop-color="#E21617"/>
</linearGradient>
<linearGradient id="paint26_linear_119_2289" x1="88.9609" y1="60.2541" x2="88.9609" y2="134.619" gradientUnits="userSpaceOnUse">
<stop stop-color="#FF6C6C"/>
<stop offset="0.28" stop-color="#F85758"/>
<stop offset="0.85" stop-color="#E62425"/>
<stop offset="1" stop-color="#E21617"/>
</linearGradient>
<linearGradient id="paint27_linear_119_2289" x1="59.1108" y1="60.2542" x2="59.1108" y2="134.619" gradientUnits="userSpaceOnUse">
<stop stop-color="#FF6C6C"/>
<stop offset="0.28" stop-color="#F85758"/>
<stop offset="0.85" stop-color="#E62425"/>
<stop offset="1" stop-color="#E21617"/>
</linearGradient>
<linearGradient id="paint28_linear_119_2289" x1="64.5415" y1="60.2541" x2="64.5415" y2="134.619" gradientUnits="userSpaceOnUse">
<stop stop-color="#FF6C6C"/>
<stop offset="0.28" stop-color="#F85758"/>
<stop offset="0.85" stop-color="#E62425"/>
<stop offset="1" stop-color="#E21617"/>
</linearGradient>
<linearGradient id="paint29_linear_119_2289" x1="53.6781" y1="60.2524" x2="53.6781" y2="134.619" gradientUnits="userSpaceOnUse">
<stop stop-color="#FF6C6C"/>
<stop offset="0.28" stop-color="#F85758"/>
<stop offset="0.85" stop-color="#E62425"/>
<stop offset="1" stop-color="#E21617"/>
</linearGradient>
<linearGradient id="paint30_linear_119_2289" x1="59.1089" y1="60.2545" x2="59.1089" y2="134.619" gradientUnits="userSpaceOnUse">
<stop stop-color="#FF6C6C"/>
<stop offset="0.28" stop-color="#F85758"/>
<stop offset="0.85" stop-color="#E62425"/>
<stop offset="1" stop-color="#E21617"/>
</linearGradient>
<linearGradient id="paint31_linear_119_2289" x1="88.9647" y1="60.2553" x2="88.9647" y2="134.62" gradientUnits="userSpaceOnUse">
<stop stop-color="#FF6C6C"/>
<stop offset="0.28" stop-color="#F85758"/>
<stop offset="0.85" stop-color="#E62425"/>
<stop offset="1" stop-color="#E21617"/>
</linearGradient>
<linearGradient id="paint32_linear_119_2289" x1="88.9667" y1="60.2556" x2="88.9667" y2="134.62" gradientUnits="userSpaceOnUse">
<stop stop-color="#FF6C6C"/>
<stop offset="0.28" stop-color="#F85758"/>
<stop offset="0.85" stop-color="#E62425"/>
<stop offset="1" stop-color="#E21617"/>
</linearGradient>
<linearGradient id="paint33_linear_119_2289" x1="59.1147" y1="60.256" x2="59.1147" y2="134.62" gradientUnits="userSpaceOnUse">
<stop stop-color="#FF6C6C"/>
<stop offset="0.28" stop-color="#F85758"/>
<stop offset="0.85" stop-color="#E62425"/>
<stop offset="1" stop-color="#E21617"/>
</linearGradient>
<linearGradient id="paint34_linear_119_2289" x1="64.5473" y1="60.2531" x2="64.5473" y2="134.62" gradientUnits="userSpaceOnUse">
<stop stop-color="#FF6C6C"/>
<stop offset="0.28" stop-color="#F85758"/>
<stop offset="0.85" stop-color="#E62425"/>
<stop offset="1" stop-color="#E21617"/>
</linearGradient>
<linearGradient id="paint35_linear_119_2289" x1="53.682" y1="60.256" x2="53.682" y2="134.62" gradientUnits="userSpaceOnUse">
<stop stop-color="#FF6C6C"/>
<stop offset="0.28" stop-color="#F85758"/>
<stop offset="0.85" stop-color="#E62425"/>
<stop offset="1" stop-color="#E21617"/>
</linearGradient>
<linearGradient id="paint36_linear_119_2289" x1="59.1128" y1="60.2551" x2="59.1128" y2="134.62" gradientUnits="userSpaceOnUse">
<stop stop-color="#FF6C6C"/>
<stop offset="0.28" stop-color="#F85758"/>
<stop offset="0.85" stop-color="#E62425"/>
<stop offset="1" stop-color="#E21617"/>
</linearGradient>
<linearGradient id="paint37_linear_119_2289" x1="88.9687" y1="60.2548" x2="88.9687" y2="134.619" gradientUnits="userSpaceOnUse">
<stop stop-color="#FF6C6C"/>
<stop offset="0.28" stop-color="#F85758"/>
<stop offset="0.85" stop-color="#E62425"/>
<stop offset="1" stop-color="#E21617"/>
</linearGradient>
<linearGradient id="paint38_linear_119_2289" x1="88.9707" y1="60.2527" x2="88.9707" y2="134.621" gradientUnits="userSpaceOnUse">
<stop stop-color="#FF6C6C"/>
<stop offset="0.28" stop-color="#F85758"/>
<stop offset="0.85" stop-color="#E62425"/>
<stop offset="1" stop-color="#E21617"/>
</linearGradient>
<linearGradient id="paint39_linear_119_2289" x1="59.1205" y1="60.2546" x2="59.1205" y2="134.62" gradientUnits="userSpaceOnUse">
<stop stop-color="#FF6C6C"/>
<stop offset="0.28" stop-color="#F85758"/>
<stop offset="0.85" stop-color="#E62425"/>
<stop offset="1" stop-color="#E21617"/>
</linearGradient>
<linearGradient id="paint40_linear_119_2289" x1="64.5512" y1="60.2566" x2="64.5512" y2="134.62" gradientUnits="userSpaceOnUse">
<stop stop-color="#FF6C6C"/>
<stop offset="0.28" stop-color="#F85758"/>
<stop offset="0.85" stop-color="#E62425"/>
<stop offset="1" stop-color="#E21617"/>
</linearGradient>
<linearGradient id="paint41_linear_119_2289" x1="53.6879" y1="60.2564" x2="53.6879" y2="134.62" gradientUnits="userSpaceOnUse">
<stop stop-color="#FF6C6C"/>
<stop offset="0.28" stop-color="#F85758"/>
<stop offset="0.85" stop-color="#E62425"/>
<stop offset="1" stop-color="#E21617"/>
</linearGradient>
<linearGradient id="paint42_linear_119_2289" x1="59.1186" y1="60.255" x2="59.1186" y2="134.62" gradientUnits="userSpaceOnUse">
<stop stop-color="#FF6C6C"/>
<stop offset="0.28" stop-color="#F85758"/>
<stop offset="0.85" stop-color="#E62425"/>
<stop offset="1" stop-color="#E21617"/>
</linearGradient>
<linearGradient id="paint43_linear_119_2289" x1="88.9735" y1="60.2551" x2="88.9735" y2="134.62" gradientUnits="userSpaceOnUse">
<stop stop-color="#FF6C6C"/>
<stop offset="0.28" stop-color="#F85758"/>
<stop offset="0.85" stop-color="#E62425"/>
<stop offset="1" stop-color="#E21617"/>
</linearGradient>
<linearGradient id="paint44_linear_119_2289" x1="88.9754" y1="60.2553" x2="88.9754" y2="134.62" gradientUnits="userSpaceOnUse">
<stop stop-color="#FF6C6C"/>
<stop offset="0.28" stop-color="#F85758"/>
<stop offset="0.85" stop-color="#E62425"/>
<stop offset="1" stop-color="#E21617"/>
</linearGradient>
<linearGradient id="paint45_linear_119_2289" x1="59.1235" y1="60.255" x2="59.1235" y2="134.62" gradientUnits="userSpaceOnUse">
<stop stop-color="#FF6C6C"/>
<stop offset="0.28" stop-color="#F85758"/>
<stop offset="0.85" stop-color="#E62425"/>
<stop offset="1" stop-color="#E21617"/>
</linearGradient>
<linearGradient id="paint46_linear_119_2289" x1="64.5561" y1="60.2551" x2="64.5561" y2="134.62" gradientUnits="userSpaceOnUse">
<stop stop-color="#FF6C6C"/>
<stop offset="0.28" stop-color="#F85758"/>
<stop offset="0.85" stop-color="#E62425"/>
<stop offset="1" stop-color="#E21617"/>
</linearGradient>
<linearGradient id="paint47_linear_119_2289" x1="53.6908" y1="60.253" x2="53.6908" y2="134.622" gradientUnits="userSpaceOnUse">
<stop stop-color="#FF6C6C"/>
<stop offset="0.28" stop-color="#F85758"/>
<stop offset="0.85" stop-color="#E62425"/>
<stop offset="1" stop-color="#E21617"/>
</linearGradient>
<linearGradient id="paint48_linear_119_2289" x1="59.1216" y1="60.2553" x2="59.1216" y2="134.62" gradientUnits="userSpaceOnUse">
<stop stop-color="#FF6C6C"/>
<stop offset="0.28" stop-color="#F85758"/>
<stop offset="0.85" stop-color="#E62425"/>
<stop offset="1" stop-color="#E21617"/>
</linearGradient>
<linearGradient id="paint49_linear_119_2289" x1="88.9775" y1="60.2546" x2="88.9775" y2="134.619" gradientUnits="userSpaceOnUse">
<stop stop-color="#FF6C6C"/>
<stop offset="0.28" stop-color="#F85758"/>
<stop offset="0.85" stop-color="#E62425"/>
<stop offset="1" stop-color="#E21617"/>
</linearGradient>
<linearGradient id="paint50_linear_119_2289" x1="88.9794" y1="60.2547" x2="88.9794" y2="134.619" gradientUnits="userSpaceOnUse">
<stop stop-color="#FF6C6C"/>
<stop offset="0.28" stop-color="#F85758"/>
<stop offset="0.85" stop-color="#E62425"/>
<stop offset="1" stop-color="#E21617"/>
</linearGradient>
<linearGradient id="paint51_linear_119_2289" x1="59.1293" y1="60.2542" x2="59.1293" y2="134.62" gradientUnits="userSpaceOnUse">
<stop stop-color="#FF6C6C"/>
<stop offset="0.28" stop-color="#F85758"/>
<stop offset="0.85" stop-color="#E62425"/>
<stop offset="1" stop-color="#E21617"/>
</linearGradient>
<linearGradient id="paint52_linear_119_2289" x1="64.56" y1="60.254" x2="64.56" y2="134.619" gradientUnits="userSpaceOnUse">
<stop stop-color="#FF6C6C"/>
<stop offset="0.28" stop-color="#F85758"/>
<stop offset="0.85" stop-color="#E62425"/>
<stop offset="1" stop-color="#E21617"/>
</linearGradient>
<linearGradient id="paint53_linear_119_2289" x1="53.6967" y1="60.2546" x2="53.6967" y2="134.619" gradientUnits="userSpaceOnUse">
<stop stop-color="#FF6C6C"/>
<stop offset="0.28" stop-color="#F85758"/>
<stop offset="0.85" stop-color="#E62425"/>
<stop offset="1" stop-color="#E21617"/>
</linearGradient>
<linearGradient id="paint54_linear_119_2289" x1="59.1256" y1="60.2545" x2="59.1256" y2="134.619" gradientUnits="userSpaceOnUse">
<stop stop-color="#FF6C6C"/>
<stop offset="0.28" stop-color="#F85758"/>
<stop offset="0.85" stop-color="#E62425"/>
<stop offset="1" stop-color="#E21617"/>
</linearGradient>
<linearGradient id="paint55_linear_119_2289" x1="88.9833" y1="60.2551" x2="88.9833" y2="134.62" gradientUnits="userSpaceOnUse">
<stop stop-color="#FF6C6C"/>
<stop offset="0.28" stop-color="#F85758"/>
<stop offset="0.85" stop-color="#E62425"/>
<stop offset="1" stop-color="#E21617"/>
</linearGradient>
<linearGradient id="paint56_linear_119_2289" x1="88.9852" y1="60.253" x2="88.9852" y2="134.624" gradientUnits="userSpaceOnUse">
<stop stop-color="#FF6C6C"/>
<stop offset="0.28" stop-color="#F85758"/>
<stop offset="0.85" stop-color="#E62425"/>
<stop offset="1" stop-color="#E21617"/>
</linearGradient>
<linearGradient id="paint57_linear_119_2289" x1="59.1333" y1="60.2552" x2="59.1333" y2="134.62" gradientUnits="userSpaceOnUse">
<stop stop-color="#FF6C6C"/>
<stop offset="0.28" stop-color="#F85758"/>
<stop offset="0.85" stop-color="#E62425"/>
<stop offset="1" stop-color="#E21617"/>
</linearGradient>
<linearGradient id="paint58_linear_119_2289" x1="64.5659" y1="60.2549" x2="64.5659" y2="134.62" gradientUnits="userSpaceOnUse">
<stop stop-color="#FF6C6C"/>
<stop offset="0.28" stop-color="#F85758"/>
<stop offset="0.85" stop-color="#E62425"/>
<stop offset="1" stop-color="#E21617"/>
</linearGradient>
<linearGradient id="paint59_linear_119_2289" x1="53.7006" y1="60.2551" x2="53.7006" y2="134.62" gradientUnits="userSpaceOnUse">
<stop stop-color="#FF6C6C"/>
<stop offset="0.28" stop-color="#F85758"/>
<stop offset="0.85" stop-color="#E62425"/>
<stop offset="1" stop-color="#E21617"/>
</linearGradient>
<linearGradient id="paint60_linear_119_2289" x1="59.1313" y1="60.2552" x2="59.1313" y2="134.62" gradientUnits="userSpaceOnUse">
<stop stop-color="#FF6C6C"/>
<stop offset="0.28" stop-color="#F85758"/>
<stop offset="0.85" stop-color="#E62425"/>
<stop offset="1" stop-color="#E21617"/>
</linearGradient>
<linearGradient id="paint61_linear_119_2289" x1="88.9873" y1="60.255" x2="88.9873" y2="134.62" gradientUnits="userSpaceOnUse">
<stop stop-color="#FF6C6C"/>
<stop offset="0.28" stop-color="#F85758"/>
<stop offset="0.85" stop-color="#E62425"/>
<stop offset="1" stop-color="#E21617"/>
</linearGradient>
<linearGradient id="paint62_linear_119_2289" x1="88.9892" y1="60.255" x2="88.9892" y2="134.619" gradientUnits="userSpaceOnUse">
<stop stop-color="#FF6C6C"/>
<stop offset="0.28" stop-color="#F85758"/>
<stop offset="0.85" stop-color="#E62425"/>
<stop offset="1" stop-color="#E21617"/>
</linearGradient>
<linearGradient id="paint63_linear_119_2289" x1="59.139" y1="60.2547" x2="59.139" y2="134.619" gradientUnits="userSpaceOnUse">
<stop stop-color="#FF6C6C"/>
<stop offset="0.28" stop-color="#F85758"/>
<stop offset="0.85" stop-color="#E62425"/>
<stop offset="1" stop-color="#E21617"/>
</linearGradient>
<linearGradient id="paint64_linear_119_2289" x1="64.5698" y1="60.2548" x2="64.5698" y2="134.622" gradientUnits="userSpaceOnUse">
<stop stop-color="#FF6C6C"/>
<stop offset="0.28" stop-color="#F85758"/>
<stop offset="0.85" stop-color="#E62425"/>
<stop offset="1" stop-color="#E21617"/>
</linearGradient>
<linearGradient id="paint65_linear_119_2289" x1="53.7064" y1="60.2549" x2="53.7064" y2="134.62" gradientUnits="userSpaceOnUse">
<stop stop-color="#FF6C6C"/>
<stop offset="0.28" stop-color="#F85758"/>
<stop offset="0.85" stop-color="#E62425"/>
<stop offset="1" stop-color="#E21617"/>
</linearGradient>
<linearGradient id="paint66_linear_119_2289" x1="59.1353" y1="60.255" x2="59.1353" y2="134.62" gradientUnits="userSpaceOnUse">
<stop stop-color="#FF6C6C"/>
<stop offset="0.28" stop-color="#F85758"/>
<stop offset="0.85" stop-color="#E62425"/>
<stop offset="1" stop-color="#E21617"/>
</linearGradient>
<linearGradient id="paint67_linear_119_2289" x1="88.992" y1="60.2545" x2="88.992" y2="134.619" gradientUnits="userSpaceOnUse">
<stop stop-color="#FF6C6C"/>
<stop offset="0.28" stop-color="#F85758"/>
<stop offset="0.85" stop-color="#E62425"/>
<stop offset="1" stop-color="#E21617"/>
</linearGradient>
<linearGradient id="paint68_linear_119_2289" x1="88.994" y1="60.2549" x2="88.994" y2="134.618" gradientUnits="userSpaceOnUse">
<stop stop-color="#FF6C6C"/>
<stop offset="0.28" stop-color="#F85758"/>
<stop offset="0.85" stop-color="#E62425"/>
<stop offset="1" stop-color="#E21617"/>
</linearGradient>
<linearGradient id="paint69_linear_119_2289" x1="59.1421" y1="60.2546" x2="59.1421" y2="134.619" gradientUnits="userSpaceOnUse">
<stop stop-color="#FF6C6C"/>
<stop offset="0.28" stop-color="#F85758"/>
<stop offset="0.85" stop-color="#E62425"/>
<stop offset="1" stop-color="#E21617"/>
</linearGradient>
<linearGradient id="paint70_linear_119_2289" x1="64.5747" y1="60.2547" x2="64.5747" y2="134.62" gradientUnits="userSpaceOnUse">
<stop stop-color="#FF6C6C"/>
<stop offset="0.28" stop-color="#F85758"/>
<stop offset="0.85" stop-color="#E62425"/>
<stop offset="1" stop-color="#E21617"/>
</linearGradient>
<linearGradient id="paint71_linear_119_2289" x1="53.7094" y1="60.2547" x2="53.7094" y2="134.62" gradientUnits="userSpaceOnUse">
<stop stop-color="#FF6C6C"/>
<stop offset="0.28" stop-color="#F85758"/>
<stop offset="0.85" stop-color="#E62425"/>
<stop offset="1" stop-color="#E21617"/>
</linearGradient>
<linearGradient id="paint72_linear_119_2289" x1="59.1401" y1="60.2548" x2="59.1401" y2="134.62" gradientUnits="userSpaceOnUse">
<stop stop-color="#FF6C6C"/>
<stop offset="0.28" stop-color="#F85758"/>
<stop offset="0.85" stop-color="#E62425"/>
<stop offset="1" stop-color="#E21617"/>
</linearGradient>
<linearGradient id="paint73_linear_119_2289" x1="88.996" y1="60.2545" x2="88.996" y2="134.619" gradientUnits="userSpaceOnUse">
<stop stop-color="#FF6C6C"/>
<stop offset="0.28" stop-color="#F85758"/>
<stop offset="0.85" stop-color="#E62425"/>
<stop offset="1" stop-color="#E21617"/>
</linearGradient>
<linearGradient id="paint74_linear_119_2289" x1="88.998" y1="60.2544" x2="88.998" y2="134.62" gradientUnits="userSpaceOnUse">
<stop stop-color="#FF6C6C"/>
<stop offset="0.28" stop-color="#F85758"/>
<stop offset="0.85" stop-color="#E62425"/>
<stop offset="1" stop-color="#E21617"/>
</linearGradient>
<linearGradient id="paint75_linear_119_2289" x1="59.1478" y1="60.2542" x2="59.1478" y2="134.621" gradientUnits="userSpaceOnUse">
<stop stop-color="#FF6C6C"/>
<stop offset="0.28" stop-color="#F85758"/>
<stop offset="0.85" stop-color="#E62425"/>
<stop offset="1" stop-color="#E21617"/>
</linearGradient>
<linearGradient id="paint76_linear_119_2289" x1="64.5786" y1="60.2546" x2="64.5786" y2="134.619" gradientUnits="userSpaceOnUse">
<stop stop-color="#FF6C6C"/>
<stop offset="0.28" stop-color="#F85758"/>
<stop offset="0.85" stop-color="#E62425"/>
<stop offset="1" stop-color="#E21617"/>
</linearGradient>
<linearGradient id="paint77_linear_119_2289" x1="53.7152" y1="60.2545" x2="53.7152" y2="134.621" gradientUnits="userSpaceOnUse">
<stop stop-color="#FF6C6C"/>
<stop offset="0.28" stop-color="#F85758"/>
<stop offset="0.85" stop-color="#E62425"/>
<stop offset="1" stop-color="#E21617"/>
</linearGradient>
<linearGradient id="paint78_linear_119_2289" x1="59.1441" y1="60.2546" x2="59.1441" y2="134.619" gradientUnits="userSpaceOnUse">
<stop stop-color="#FF6C6C"/>
<stop offset="0.28" stop-color="#F85758"/>
<stop offset="0.85" stop-color="#E62425"/>
<stop offset="1" stop-color="#E21617"/>
</linearGradient>
<linearGradient id="paint79_linear_119_2289" x1="104.125" y1="74.7627" x2="104.125" y2="120.78" gradientUnits="userSpaceOnUse">
<stop stop-color="#FFD03F"/>
<stop offset="0.2" stop-color="#FCC939"/>
<stop offset="0.46" stop-color="#F5B82A"/>
<stop offset="0.77" stop-color="#EA9C12"/>
<stop offset="0.9" stop-color="#E58E06"/>
<stop offset="1" stop-color="#DF8800"/>
</linearGradient>
<linearGradient id="paint80_linear_119_2289" x1="103.915" y1="78.012" x2="104.157" y2="117.406" gradientUnits="userSpaceOnUse">
<stop stop-color="#DF8800"/>
<stop offset="0.1" stop-color="#E58E06"/>
<stop offset="0.23" stop-color="#EA9C12"/>
<stop offset="0.54" stop-color="#F5B82A"/>
<stop offset="0.8" stop-color="#FCC939"/>
<stop offset="1" stop-color="#FFD03F"/>
</linearGradient>
<clipPath id="clip0_119_2289">
<rect width="280" height="230" fill="white"/>
</clipPath>
</defs>
</svg>
