<svg width="298" height="163" viewBox="0 0 298 163" fill="none" xmlns="http://www.w3.org/2000/svg">
<g clip-path="url(#clip0_119_2467)">
<g opacity="0.75">
<path d="M107.319 20.4673C105.76 20.5228 104.548 21.8489 104.548 23.4073V23.625C104.548 24.3732 103.942 24.9788 103.193 24.9788H90.7952C89.9065 24.9788 89.1498 25.6888 89.163 26.5768C89.1775 27.486 88.4447 28.2275 87.5375 28.2275H84.9189C83.6724 28.2275 82.6608 29.2383 82.6608 30.484V33.0109C82.6608 33.7696 82.0376 34.3489 81.2783 34.3647C80.5428 34.3792 79.9512 34.9796 79.9512 35.7186V40.2314C79.9512 40.9901 80.5744 41.5694 81.3337 41.5852C82.0693 41.5998 82.6608 42.2001 82.6608 42.9391V45.466C82.6608 46.7116 83.6724 47.7224 84.9189 47.7224H87.5322C88.4209 47.7224 89.1775 48.4323 89.1643 49.3204C89.1498 50.2295 89.8827 50.9711 90.7899 50.9711H103.193C103.942 50.9711 104.548 51.5768 104.548 52.325V52.5427C104.548 54.0997 105.76 55.4272 107.319 55.4826C108.953 55.5407 110.298 54.233 110.298 52.6113V23.34C110.298 21.7183 108.953 20.4106 107.319 20.4687V20.4673Z" fill="#D8D7D6"/>
<path d="M0.158729 41.898L0.119114 41.8135C-0.172718 41.196 0.0900626 40.4597 0.706739 40.1628C2.94368 39.0874 5.04592 38.0172 7.09007 36.9788C12.6309 34.1602 17.4151 31.7257 22.1267 30.6067C27.414 29.3518 32.0622 29.9232 36.7552 32.4052C43.6734 36.0643 50.8965 36.666 55.7388 36.5262C60.3725 36.3929 77.1033 36.6607 81.218 36.7228C81.7647 36.7307 82.2414 37.0949 82.3933 37.6201C82.6243 38.4197 82.0196 39.2154 81.1876 39.2088C76.0548 39.1639 60.56 38.9594 55.8947 39.1019C50.7209 39.2602 42.9907 38.6216 35.547 34.6841C26.5939 29.9483 18.9033 33.862 8.26004 39.2774C6.20269 40.3238 4.08459 41.4018 1.82257 42.4891C1.20061 42.7874 0.453202 42.5221 0.158729 41.8993V41.898Z" fill="#D8D7D6"/>
</g>
<g opacity="0.75">
<path d="M189.204 20.4673C190.763 20.5228 191.975 21.8489 191.975 23.4073V23.625C191.975 24.3732 192.581 24.9788 193.33 24.9788H205.728C206.616 24.9788 213.862 25.442 213.862 30.484V33.0109C213.862 33.7696 214.485 34.3489 215.245 34.3647C215.98 34.3792 216.572 34.9796 216.572 35.7186V40.2314C216.572 40.9901 215.949 41.5694 215.189 41.5852C214.454 41.5998 213.862 42.2001 213.862 42.9391V45.466C213.862 50.5489 206.64 50.9711 205.734 50.9711H193.331C192.582 50.9711 191.976 51.5768 191.976 52.325V52.5427C191.976 54.0997 190.764 55.4272 189.206 55.4826C187.571 55.5407 186.227 54.233 186.227 52.6113V23.34C186.227 21.7183 187.571 20.4106 189.206 20.4687L189.204 20.4673Z" fill="#D8D7D6"/>
<path d="M176.745 29.0933H185.392V33.1759H176.745C176.025 33.1759 175.44 32.5914 175.44 31.8722V30.397C175.44 29.6778 176.025 29.0933 176.745 29.0933Z" fill="#D8D7D6"/>
<path d="M176.745 42.7729H185.392V46.8556H176.745C176.025 46.8556 175.44 46.271 175.44 45.5519V44.0767C175.44 43.3575 176.025 42.7729 176.745 42.7729Z" fill="#D8D7D6"/>
<path d="M252.974 49.5893C251.725 49.5893 250.49 49.5366 249.279 49.4284C244.78 49.0285 240.696 47.9162 237.47 46.21C230.45 42.4968 223.696 40.7722 219.265 39.9778C216.199 39.4289 213.792 39.2362 212.438 39.1703C211.757 39.1373 211.22 38.5778 211.213 37.8969C211.205 37.154 211.822 36.5576 212.564 36.5932C213.994 36.6631 216.47 36.8611 219.647 37.4272C224.277 38.2505 231.335 40.0491 238.677 43.9325C243.728 46.6045 253.08 48.4347 264.176 45.5595C272.557 43.3888 284.741 37.7201 295.673 23.0772C296.095 22.5124 296.891 22.3857 297.463 22.7987C298.047 23.2197 298.175 24.0378 297.744 24.6131C286.366 39.8591 273.608 45.7798 264.823 48.0547C260.901 49.0708 256.867 49.5893 252.973 49.5893H252.974Z" fill="#D8D7D6"/>
</g>
<path d="M88.1358 68.3745V127.367H101.344V140.697H88.1358V161.417H72.5512V140.697H25.9307L22.8936 129.084L74.2692 68.3758H88.1371L88.1358 68.3745ZM72.5512 90.8106L42.1743 127.367H72.5512V90.8106Z" fill="#1E1919"/>
<path d="M186.265 133.768C184.328 139.62 181.597 144.702 178.077 149.012C174.554 153.324 170.305 156.732 165.331 159.239C160.355 161.746 154.832 163 148.756 163C142.68 163 137.177 161.766 132.247 159.305C127.315 156.843 123.089 153.456 119.569 149.143C116.046 144.834 113.339 139.773 111.447 133.966C109.552 128.159 108.607 121.956 108.607 115.358C108.607 108.76 109.575 102.536 111.513 96.6839C113.448 90.8344 116.178 85.7528 119.701 81.4406C123.221 77.131 127.471 73.72 132.445 71.2128C137.418 68.7057 142.945 67.4521 149.02 67.4521C155.096 67.4521 160.597 68.6859 165.529 71.1469C170.459 73.6118 174.686 76.999 178.207 81.3086C181.728 85.6209 184.435 90.6787 186.33 96.486C188.222 102.293 189.169 108.495 189.169 115.094C189.169 121.693 188.198 127.919 186.264 133.768H186.265ZM170.747 102.424C169.645 98.3782 168.059 94.8577 165.991 91.8663C163.921 88.8762 161.434 86.501 158.529 84.7394C155.624 82.9805 152.365 82.1003 148.756 82.1003C145.147 82.1003 141.909 82.9581 139.049 84.6735C136.186 86.3889 133.743 88.7218 131.719 91.6683C129.692 94.6175 128.13 98.1143 127.03 102.16C125.927 106.208 125.379 110.519 125.379 115.094C125.379 119.669 125.929 124.091 127.03 128.094C128.13 132.099 129.714 135.617 131.785 138.652C133.853 141.687 136.342 144.063 139.247 145.779C142.152 147.494 145.409 148.352 149.02 148.352C152.632 148.352 155.866 147.494 158.727 145.779C161.587 144.063 164.03 141.711 166.057 138.718C168.082 135.728 169.644 132.231 170.747 128.226C171.846 124.224 172.397 119.934 172.397 115.359C172.397 110.784 171.846 106.474 170.747 102.425V102.424Z" fill="#1E1919"/>
<path d="M259.696 68.3745V127.367H272.904V140.697H259.696V161.417H244.112V140.697H197.491L194.454 129.084L245.83 68.3758H259.698L259.696 68.3745ZM244.112 90.8106L213.735 127.367H244.112V90.8106Z" fill="#1E1919"/>
<path d="M161.981 105.704C161.981 105.704 161.543 102.745 161.846 102.09C162.15 101.436 169.606 101.087 169.589 101.64C169.571 102.193 170.028 108.284 169.867 109.237C169.705 110.189 162.212 108.953 162.212 108.953L161.981 105.703V105.704Z" fill="#F5BF99"/>
<path d="M161.011 112.371C161.449 112.916 162.322 114.333 162.722 114.442C163.122 114.552 163.122 115.495 163.013 116.623C162.903 117.749 163.159 118.84 164.686 119.495C166.214 120.148 172.033 121.094 173.196 118.658C173.505 118.013 173.492 117.345 173.305 116.642C172.784 114.692 170.923 112.477 170.87 109.753C170.825 107.498 170.66 106.612 170.046 106.12C169.99 106.074 169.931 106.032 169.867 105.995C169.482 105.756 168.948 105.609 168.214 105.39C166.801 104.968 165.312 105.749 164.25 106.262C164.006 106.381 163.784 106.485 163.591 106.558C163.327 106.657 163.116 106.697 162.976 106.629C162.285 106.302 162.03 105.32 161.667 105.793C161.667 105.793 160.977 108.722 161.012 109.238C161.023 109.375 160.995 109.621 160.961 109.919C160.86 110.746 160.689 111.972 161.011 112.372V112.371Z" fill="#191716"/>
<path opacity="0.5" d="M164.249 113.206C164.249 113.206 163.694 108.165 164.249 106.262C164.004 106.38 163.783 106.484 163.59 106.556C163.594 106.651 163.816 112.45 164.249 113.206Z" fill="black"/>
<path opacity="0.5" d="M170.141 112.752C170.141 112.752 170.824 111.939 170.044 106.12C169.989 106.074 169.93 106.032 169.866 105.995C169.866 105.995 170.431 111.207 170.141 112.752Z" fill="black"/>
<path opacity="0.5" d="M164.249 113.206C164.249 113.206 168.541 115.387 170.141 112.752C170.141 112.752 168.759 114.915 164.249 113.206Z" fill="black"/>
<path opacity="0.5" d="M161.011 112.371C161.449 112.916 162.322 114.333 162.722 114.442C163.122 114.552 163.122 115.495 163.013 116.624C162.903 117.749 163.159 118.84 164.686 119.495C166.214 120.148 172.033 121.094 173.196 118.658C173.505 118.013 173.492 117.345 173.305 116.642C172.938 118.55 171.922 118.803 168.032 118.906C164.14 119.009 163.522 116.441 163.591 115.787C163.658 115.134 163.666 113.243 163.231 112.752C162.8 112.27 161.016 109.989 160.961 109.919C160.86 110.745 160.689 111.971 161.011 112.372V112.371Z" fill="black"/>
<path d="M136.161 104.638C136.161 104.638 136.599 101.679 136.295 101.024C135.992 100.37 128.536 100.021 128.553 100.574C128.571 101.127 128.114 107.218 128.275 108.171C128.437 109.123 135.93 107.887 135.93 107.887L136.161 104.637V104.638Z" fill="#F5BF99"/>
<path d="M137.132 111.305C136.693 111.85 135.821 113.267 135.42 113.376C135.02 113.486 135.02 114.429 135.13 115.558C135.24 116.683 134.983 117.774 133.457 118.429C131.929 119.082 126.11 120.028 124.946 117.592C124.637 116.947 124.65 116.279 124.838 115.576C125.358 113.626 127.22 111.412 127.273 108.687C127.318 106.432 127.483 105.546 128.097 105.054C128.152 105.008 128.212 104.966 128.275 104.929C128.661 104.69 129.194 104.543 129.928 104.324C131.341 103.902 132.831 104.683 133.893 105.197C134.137 105.315 134.359 105.42 134.552 105.492C134.816 105.591 135.027 105.631 135.167 105.563C135.857 105.236 136.112 104.254 136.475 104.727C136.475 104.727 137.166 107.656 137.13 108.172C137.12 108.309 137.148 108.555 137.182 108.853C137.282 109.68 137.454 110.906 137.132 111.306V111.305Z" fill="#191716"/>
<path opacity="0.5" d="M133.893 112.14C133.893 112.14 134.447 107.099 133.893 105.196C134.137 105.314 134.359 105.418 134.552 105.491C134.548 105.586 134.326 111.384 133.893 112.14Z" fill="black"/>
<path opacity="0.5" d="M128 111.686C128 111.686 127.318 110.873 128.097 105.054C128.152 105.008 128.212 104.966 128.275 104.929C128.275 104.929 127.71 110.141 128 111.686Z" fill="black"/>
<path opacity="0.5" d="M133.893 112.14C133.893 112.14 129.601 114.321 128.001 111.686C128.001 111.686 129.384 113.849 133.893 112.14Z" fill="black"/>
<path opacity="0.5" d="M137.132 111.305C136.693 111.85 135.821 113.267 135.42 113.376C135.02 113.486 135.02 114.429 135.13 115.558C135.24 116.683 134.983 117.774 133.457 118.429C131.929 119.082 126.11 120.028 124.946 117.592C124.637 116.947 124.65 116.279 124.838 115.576C125.205 117.484 126.22 117.737 130.111 117.84C134.002 117.943 134.62 115.376 134.552 114.721C134.484 114.068 134.476 112.177 134.912 111.686C135.343 111.204 137.127 108.923 137.182 108.853C137.282 109.679 137.454 110.905 137.132 111.306V111.305Z" fill="black"/>
<path d="M170.443 103.163C170.054 103.812 161.682 103.481 161.163 103.221C160.644 102.961 160.576 83.8317 160.836 79.2899C160.858 78.9257 160.851 78.5747 160.819 78.2382C160.805 78.0746 160.785 77.9136 160.76 77.7553C160.203 74.2506 157.167 72.3438 157.072 72.2858C157.072 72.2858 157.07 72.2858 157.069 72.2844H140.711C139.745 73.249 139.089 74.1846 138.676 75.6387C138.625 75.8103 138.581 75.9897 138.538 76.1784C138.169 77.8173 138.051 80.0803 138.113 83.5718C138.244 90.8372 138.113 101.477 137.853 102.124C137.594 102.774 127.264 102.443 127.134 101.535C127.005 100.627 127.078 78.2527 127.207 70.0782C127.336 61.905 132.79 59.828 132.79 59.828C132.79 59.828 151.875 53.861 161.223 58.1416C170.571 62.4235 171.481 68.0012 171.61 72.2831C171.741 76.565 170.831 102.512 170.442 103.162L170.443 103.163Z" fill="#2D2A29"/>
<path opacity="0.4" d="M146.77 72.2844H146.266C146.266 72.2844 146.322 72.2065 146.412 72.0601L146.769 72.2844H146.77Z" fill="#020202"/>
<path opacity="0.4" d="M148.417 71.4599C148.327 67.6795 151.873 64.1642 151.982 64.0573C148.646 66.7993 148.005 70.271 148.005 70.271C148.41 65.7661 146.327 64.1022 146.267 64.0547C148.787 67.6742 146.968 71.1591 146.414 72.059L140.712 72.2833H157.07C156.602 71.9495 148.417 71.4599 148.417 71.4599Z" fill="#020202"/>
<path opacity="0.4" d="M146.77 63.908C146.77 63.908 144.402 60.9773 141.516 60.0708C141.516 60.0708 144.693 60.6989 146.77 63.908Z" fill="#020202"/>
<path opacity="0.4" d="M150.337 64.7421C150.337 64.7421 151.873 62.6981 153.828 62.0938C153.828 62.0938 151.548 62.6242 150.337 64.7421Z" fill="#020202"/>
<path opacity="0.4" d="M149.196 62.7915C149.196 62.7915 151.639 60.4665 154.852 60.2329C154.852 60.2329 152.455 60.349 149.196 62.7915Z" fill="#020202"/>
<path opacity="0.4" d="M129.198 69.7837C129.198 69.7837 132.165 71.8725 135.74 70.9291C135.74 70.9291 132.503 72.4122 129.198 69.7837Z" fill="#020202"/>
<path opacity="0.4" d="M170.242 70.6562C170.242 70.6562 167.275 72.7451 163.7 71.8016C163.7 71.8016 166.937 73.2848 170.242 70.6562Z" fill="#020202"/>
<path opacity="0.4" d="M163.053 74.703C163.053 74.703 162.722 77.0781 160.819 78.238C160.805 78.0744 160.785 77.9134 160.76 77.7551C160.801 77.7313 162.123 76.9581 163.052 74.7017L163.053 74.703Z" fill="#020202"/>
<path opacity="0.4" d="M138.677 75.6387C138.627 75.8102 138.582 75.9897 138.54 76.1784C137.249 75.6427 136.705 74.0249 136.686 73.9629C137.294 75.1755 138.677 75.6374 138.677 75.6374V75.6387Z" fill="#020202"/>
<path d="M142.94 21.3962L143.059 26.6942L150.389 30.0577L154.216 26.0225L153.535 19.8154L142.94 21.3962Z" fill="#FFC7A0"/>
<path d="M153.071 61.4074C153.071 61.4074 150.773 62.5448 149.347 62.7626C147.919 62.9803 146.121 63.8169 144.119 62.876C142.118 61.9339 144.647 53.9019 144.647 53.9019H152.047C152.047 53.9019 154.141 59.3463 153.071 61.4087V61.4074Z" fill="white"/>
<path d="M134.957 53.9004C134.957 53.9004 134.559 57.38 134.194 57.8696C133.83 58.3591 132.516 59.6905 132.792 61.4706C132.792 61.4706 139.514 59.9083 140.698 61.4706C141.881 63.0329 144.024 64.111 144.119 63.6307C144.214 63.1504 144.647 53.9004 144.647 53.9004H134.956H134.957Z" fill="#E19A06"/>
<path d="M152.049 53.9004C152.049 53.9004 152.92 61.7503 153.195 61.7121C153.47 61.6738 160.755 59.49 163.912 61.1803C167.07 62.8706 163.389 56.5593 163.091 53.9004H152.049Z" fill="#E19A06"/>
<path d="M144.119 26.6687C144.119 26.6687 148.783 29.7195 153.227 26.0234V34.4461L152.047 53.9H144.647L144.119 26.6687Z" fill="white"/>
<path d="M144.648 53.9001H134.957L135.133 50.4957L135.03 49.9151L133.486 36.494C133.486 36.494 129.218 24.2382 133.152 23.3963C134.459 23.1165 135.911 22.4673 136.658 22.2008C140.454 20.8509 142.299 21.033 142.299 21.033C142.417 20.6226 143.122 20.4458 143.122 20.4458C143.122 20.4458 143.18 25.2582 144.12 26.6674C145.06 28.0754 145.941 31.01 146.234 34.9423C146.529 38.8745 144.648 53.8988 144.648 53.8988V53.9001Z" fill="#F47222"/>
<path d="M162.547 49.0704L163.09 53.8999H152.048C152.048 53.8999 150.522 39.8151 150.815 35.8829C151.108 31.9507 151.813 28.8379 152.753 27.4299C153.693 26.022 153.576 20.4482 153.576 20.4482C153.576 20.4482 154.281 20.6237 154.399 21.0354C154.399 21.0354 158.305 21.7163 161.531 23.5887C164.662 25.4057 165.693 27.7387 165.693 27.7387L162.446 48.1493L162.451 48.2008L162.549 49.0717L162.547 49.0704Z" fill="#F47222"/>
<path opacity="0.15" d="M143.349 63.0392C143.349 63.0392 143.347 63.0392 143.344 63.0392C143.326 63.0366 143.314 63.0194 143.316 63.0009C143.322 62.9666 143.364 58.3443 143.741 53.4778C144.103 48.8067 144.979 43.9244 145.22 41.0478C145.511 37.5813 145.252 34.6559 144.984 32.8112C144.649 30.4994 144.102 28.5451 143.484 27.446C142.301 25.3426 142.137 21.4407 142.136 21.4025C142.136 21.384 142.149 21.3682 142.167 21.3682C142.187 21.3682 142.202 21.3814 142.202 21.3998C142.203 21.4394 142.366 25.3241 143.542 27.413C144.164 28.5174 144.713 30.4822 145.05 32.8006C145.318 34.648 145.577 37.5787 145.286 41.0517C145.046 43.9283 144.171 48.8067 143.809 53.4765C143.431 58.3482 143.388 62.9759 143.382 63.0102C143.38 63.0273 143.365 63.0392 143.349 63.0392Z" fill="#020202"/>
<path opacity="0.15" d="M154.048 61.0586C154.031 61.0586 154.016 61.0454 154.015 61.0295C153.546 56.9588 152.054 43.7225 151.971 39.3904C151.897 35.507 151.995 30.5772 152.883 29.1442C154.435 26.6424 154.372 21.4553 154.37 21.4025C154.37 21.384 154.385 21.3682 154.403 21.3682C154.422 21.3682 154.438 21.3827 154.438 21.4012C154.438 21.4143 154.456 22.7273 154.282 24.3332C154.121 25.8163 153.758 27.8616 152.94 29.1798C152.061 30.5983 151.964 35.5149 152.038 39.3904C152.122 43.7211 153.614 56.9548 154.082 61.0229C154.085 61.0414 154.072 61.0586 154.053 61.0599C154.053 61.0599 154.051 61.0599 154.049 61.0599L154.048 61.0586Z" fill="#020202"/>
<path opacity="0.15" d="M154.195 54.3435C154.195 54.3435 158.509 48.9835 158.744 40.7681C158.744 40.7681 158.98 48.841 154.195 54.3435Z" fill="#020202"/>
<path opacity="0.15" d="M138.029 46.3628C138.029 46.3628 137.481 52.2928 138.575 56.5219C138.575 56.5219 137.741 52.0909 138.029 46.3628Z" fill="#020202"/>
<path opacity="0.15" d="M137.852 32.2188C137.852 32.2188 141.422 36.3278 143.544 41.573C143.544 41.573 140.508 35.8382 137.852 32.2188Z" fill="#020202"/>
<path opacity="0.15" d="M153.744 37.7992C153.744 37.7992 155.35 34.9252 157.963 33.5146C157.963 33.5146 155.403 34.4119 153.744 37.7992Z" fill="#020202"/>
<path opacity="0.15" d="M134.194 57.8696C134.194 57.8696 138.721 57.38 140.792 61.0589C140.792 61.0589 138.883 57.0594 134.194 57.8696Z" fill="#020202"/>
<path opacity="0.15" d="M163.089 53.9004C163.089 53.9004 158.13 56.4946 157.31 59.4108C157.31 59.4108 158.851 56.4669 163.089 53.9004Z" fill="#020202"/>
<path d="M165.692 27.7378C165.692 27.7378 166.961 31.637 167.792 35.6577C168.622 39.6783 168.366 40.4436 169.005 43.8282C169.644 47.2129 170.73 50.1093 168.686 53.1297C166.641 56.1514 165.935 57.8008 163.701 57.8061C161.465 57.8114 158.746 52.7919 158.746 52.7919L165.691 27.7378H165.692Z" fill="#F47222"/>
<path opacity="0.15" d="M160.783 47.7198C160.783 47.7198 165.853 46.2551 167.833 49.2636C167.833 49.2636 165.932 45.6626 160.783 47.7198Z" fill="#020202"/>
<path opacity="0.15" d="M163.705 35.1362C163.705 35.1362 162.341 40.5002 161.787 47.5636H161.352C161.352 47.5636 162.018 40.3233 163.705 35.1362Z" fill="#020202"/>
<path d="M141.054 6.48532C141.297 6.39031 142.6 4.93222 143.055 4.55351C143.51 4.17481 143.434 3.64039 142.991 3.65095C142.549 3.66019 142.041 4.10487 141.015 5.08133C139.989 6.05911 139.765 6.2478 139.526 6.13036C139.287 6.01292 139.583 5.56824 139.583 5.56824C140.511 4.25134 140.733 4.94806 140.904 4.35822C141.074 3.76839 140.707 3.75651 140.024 3.90034C139.34 4.04549 138.448 5.08265 137.63 5.79388C136.814 6.50643 134.913 8.27857 134.602 8.78132C134.432 9.05578 133.733 9.56248 133.134 9.96626C133.68 10.948 134.489 12.6581 134.883 13.4393C134.924 13.4142 134.964 13.3918 135.004 13.3707C135.674 13.0091 136.254 12.6331 136.621 12.4351C137.197 12.125 137.453 12.2227 138.712 12.0947C139.969 11.968 140.521 11.4468 141.407 11.1934C142.294 10.9374 142.45 10.9652 142.948 10.6419C143.444 10.3173 143.638 10.3239 144.006 10.085C144.083 10.0349 144.139 9.9755 144.171 9.91216V9.90952C144.177 9.89633 144.184 9.88445 144.188 9.87126C144.267 9.6443 144.062 9.37907 143.582 9.26955C143.262 9.19697 142.78 9.32365 142.373 9.47012C141.993 9.60735 141.68 9.76173 141.623 9.78945C141.648 9.77625 141.673 9.76041 141.7 9.74458C141.7 9.74458 141.701 9.74326 141.703 9.74326C141.741 9.71819 141.782 9.68916 141.821 9.65749C142.185 9.37643 142.614 8.87896 143.196 8.45011C143.892 7.93945 145.598 6.4708 145.999 6.15412C146.401 5.83611 146.001 5.36503 145.766 5.30433C145.531 5.24363 145.202 5.4983 144.69 5.88097C144.177 6.26364 142.247 7.84312 141.94 7.86424C141.634 7.88535 141.692 7.632 141.88 7.54095C142.066 7.45122 142.776 6.88118 143.167 6.67929C143.557 6.47872 144.664 4.97577 145.086 4.67755C145.508 4.37802 145.413 3.84624 145.132 3.69186C144.852 3.53879 144.629 3.65095 144.214 4.06529C143.801 4.4783 142.589 5.60387 141.676 6.30322C140.762 7.00258 140.809 6.57637 141.053 6.48268L141.054 6.48532Z" fill="#FFC7A0"/>
<path opacity="0.1" d="M134.687 9.37402C134.687 9.37402 135.909 10.1763 136.28 11.2662C136.28 11.2662 135.93 10.3452 134.687 9.37402Z" fill="black"/>
<path opacity="0.1" d="M141.683 9.50049C141.642 9.53216 141.604 9.55987 141.564 9.58626C141.564 9.58626 141.563 9.58626 141.561 9.58758C141.527 9.60869 141.499 9.62452 141.486 9.63244C141.482 9.63376 141.481 9.63508 141.479 9.6364C141.479 9.6364 141.182 9.86864 140.737 9.90823C140.306 9.94649 140.137 10.0204 140.126 10.0243C140.137 10.0151 140.325 9.86468 140.766 9.83301C140.79 9.83169 140.815 9.82773 140.838 9.82114C140.965 9.78551 141.396 9.65883 141.684 9.50049H141.683Z" fill="black"/>
<path opacity="0.1" d="M141.923 7.81689C141.923 7.81689 142.344 8.24838 142.312 8.62709C142.312 8.62709 142.353 8.12567 141.923 7.81689Z" fill="black"/>
<path opacity="0.1" d="M139.232 5.83755C139.232 5.83755 138.781 5.43773 138.404 5.48656C138.404 5.48656 138.903 5.4219 139.232 5.83755Z" fill="black"/>
<path opacity="0.1" d="M140.709 6.45357C140.709 6.45357 140.341 5.97458 139.962 5.95215C139.962 5.95215 140.465 5.98382 140.709 6.45357Z" fill="black"/>
<path opacity="0.1" d="M141.573 7.51725C141.573 7.51725 141.449 6.92741 141.117 6.74268C141.117 6.74268 141.557 6.98811 141.573 7.51725Z" fill="black"/>
<path opacity="0.1" d="M140.184 4.63013C140.184 4.63013 139.822 4.66707 139.574 4.3042C139.574 4.3042 139.832 4.5945 140.184 4.63013Z" fill="black"/>
<path opacity="0.1" d="M141.855 4.48242C141.855 4.48242 141.96 4.82154 142.285 4.90204C142.285 4.90204 142.003 4.80835 141.855 4.48242Z" fill="black"/>
<path opacity="0.1" d="M143.662 4.63135C143.662 4.63135 143.766 4.97047 144.091 5.05096C144.091 5.05096 143.81 4.95727 143.662 4.63135Z" fill="black"/>
<path opacity="0.1" d="M144.456 6.21484C144.456 6.21484 144.505 6.56584 144.813 6.69648C144.813 6.69648 144.55 6.56056 144.456 6.21484Z" fill="black"/>
<path opacity="0.1" d="M143.224 7.05127C143.224 7.05127 143.283 7.47748 143.657 7.63583C143.657 7.63583 143.337 7.47088 143.224 7.05127Z" fill="black"/>
<path opacity="0.1" d="M139.146 4.625C139.146 4.625 139.251 4.96412 139.576 5.04461C139.576 5.04461 139.294 4.95093 139.146 4.625Z" fill="black"/>
<path opacity="0.1" d="M140.879 5.17236C140.879 5.17236 141.006 5.58538 141.402 5.68434C141.402 5.68434 141.058 5.57086 140.879 5.17236Z" fill="black"/>
<path opacity="0.1" d="M142.424 5.74121C142.424 5.74121 142.551 6.15423 142.947 6.25319C142.947 6.25319 142.603 6.13971 142.424 5.74121Z" fill="black"/>
<path opacity="0.05" d="M139.392 11.6977C139.392 11.6977 139.985 11.1092 140.134 10.1499C140.134 10.1499 140.103 11.0736 139.392 11.6977Z" fill="black"/>
<path opacity="0.1" d="M141.728 9.70361C141.728 9.70361 141.825 10.1681 142.299 10.308C142.299 10.308 141.955 10.213 141.728 9.70361Z" fill="black"/>
<path d="M128.834 24.1485C128.821 24.2303 128.892 24.3042 128.978 24.2871C129.268 24.2303 129.835 24.1221 130.514 24.0047C131.505 23.8331 132.069 23.6088 133.153 23.3977L134.268 23.6629C135.352 23.4518 135.039 35.1389 133.487 36.4954C133.487 36.4954 133.446 36.4506 133.371 36.3767C133.14 36.1471 132.579 35.639 131.857 35.3105C131.76 35.2669 131.66 35.2247 131.558 35.1891C131.557 35.1891 131.553 35.1878 131.552 35.1864C131.351 35.1152 131.141 35.0611 130.923 35.0307C129.501 34.8368 125.449 34.3419 122.54 32.038C119.631 29.7341 117.347 27.6228 117.583 25.4905C117.82 23.3594 121.355 19.7848 122.712 18.3201C124.07 16.8554 129.906 11.8702 131.182 10.9333C132.691 9.82622 133.964 8.79039 134.179 8.96456C134.395 9.1361 137.283 11.9797 137.261 13.1422C137.261 13.1422 130.519 19.5961 128.842 24.1274C128.841 24.1353 128.838 24.1432 128.837 24.1511L128.834 24.1485Z" fill="#F47222"/>
<path opacity="0.15" d="M128.978 24.2871C128.978 24.2871 127.499 30.5246 123.832 28.3526C124.243 28.5862 127.321 30.1037 128.834 24.1499C128.821 24.2317 128.892 24.3056 128.978 24.2885V24.2871Z" fill="black"/>
<path opacity="0.15" d="M133.486 36.4958C133.486 36.4958 133.445 36.4509 133.37 36.377C133.139 36.1474 132.578 35.6394 131.855 35.3109C132.157 35.427 132.396 35.5061 132.587 35.5603C132.941 35.6632 133.305 35.4349 133.377 35.072C133.381 35.0522 133.385 35.0311 133.389 35.0113C134.223 30.74 133.769 27.5269 133.737 27.3145C134.407 30.261 133.486 36.4958 133.486 36.4958Z" fill="black"/>
<path d="M140.617 12.0197C140.617 12.0197 139.361 10.745 139.349 12.1978C139.337 13.6506 139.581 12.7586 139.724 14.7669C139.843 16.4388 141.125 15.911 141.125 15.911L140.617 12.0197Z" fill="#FFC7A0"/>
<path d="M155.585 12.3722C155.585 12.3722 156.84 11.0975 156.852 12.5503C156.864 14.0031 156.62 13.1111 156.477 15.1195C156.358 16.7913 155.076 16.2635 155.076 16.2635L155.585 12.3722Z" fill="#FFC7A0"/>
<path d="M155.093 14.3036C155.092 14.4646 155.091 14.6282 155.089 14.7932C155.087 15.0412 155.085 15.2919 155.085 15.5479C155.085 16.2077 155.029 16.8516 154.926 17.4731C154.918 17.5193 154.91 17.5668 154.902 17.613C154.707 18.7109 154.363 19.7071 153.925 20.5938C152.41 23.6578 149.747 25.4036 148.013 25.4036C146.279 25.4036 143.839 23.8597 142.365 20.8947C141.85 19.8589 141.455 18.6488 141.254 17.2699C141.247 17.2132 141.239 17.1564 141.231 17.101C141.152 16.502 141.108 15.8805 141.108 15.2365C141.108 14.9264 141.105 14.6216 141.101 14.3247C141.099 14.14 141.096 13.9592 141.093 13.7797C141.023 9.19039 140.975 6.33887 148.012 6.33887C155.049 6.33887 155.132 9.54535 155.092 14.3049L155.093 14.3036Z" fill="#FFC7A0"/>
<path d="M141.36 12.4063C141.36 12.4063 141.109 15.626 141.125 15.9123C141.141 16.1987 140.378 12.4063 140.258 11.3692C140.137 10.332 139.069 6.83259 140.078 5.20164C141.087 3.57069 141.022 3.24476 142.167 2.50318C143.312 1.7616 145.478 -0.164925 147.169 0.0118936C148.861 0.190031 151.828 0.990991 152.866 1.73125C153.904 2.47283 155.502 3.03628 156.349 5.08156C157.197 7.12685 155.344 13.458 155.187 15.9269C155.187 15.9269 155.14 16.2858 154.853 12.9539C154.841 12.8114 154.775 12.6781 154.667 12.5818C154.425 12.3654 153.97 11.8112 153.681 10.5431C153.63 10.3254 153.451 10.1605 153.229 10.1328C152.365 10.0259 150.271 9.80023 149.571 10.0338C148.706 10.3215 145.458 11.3678 142.722 9.90448C142.582 9.82926 142.407 9.886 142.335 10.0285C142.153 10.3901 141.867 11.0775 141.896 11.7835C141.902 11.9009 141.83 12.0091 141.721 12.0527C141.565 12.1147 141.371 12.2282 141.356 12.4063H141.36Z" fill="#232628"/>
<path opacity="0.1" d="M153.957 20.5942C153.957 20.5942 152.161 25.5372 148.263 25.6679C144.395 25.7972 142.396 20.9703 142.365 20.8964C143.84 23.8614 146.302 25.4053 148.013 25.4053C149.724 25.4053 152.409 23.6582 153.925 20.5956H153.957V20.5942Z" fill="#272727"/>
<g opacity="0.15">
<path d="M153.752 9.2991C153.752 9.2991 152.693 8.27777 151.261 8.18541C149.83 8.09304 144.478 8.01782 142.805 5.99365" stroke="white" stroke-width="1.5" stroke-miterlimit="10" stroke-linecap="round"/>
<path d="M146.429 10.0789C146.429 10.0789 142.7 10.8073 140.207 6.33936" stroke="white" stroke-width="1.5" stroke-miterlimit="10" stroke-linecap="round"/>
<path d="M145.192 9.02021C145.192 9.02021 143.126 9.33558 141.005 6.68066" stroke="white" stroke-width="1.5" stroke-miterlimit="10" stroke-linecap="round"/>
<path d="M156.205 8.55591C156.205 8.55591 155.834 9.59571 152.711 6.92101C149.589 4.2463 144.106 6.67953 142.168 3.57861" stroke="white" stroke-width="1.5" stroke-miterlimit="10" stroke-linecap="round"/>
<path d="M155.331 4.84162C155.331 4.84162 153.695 5.67688 150.926 3.13281" stroke="white" stroke-width="1.5" stroke-miterlimit="10" stroke-linecap="round"/>
<path d="M151.019 2.66817C151.019 2.66817 147.841 3.07723 145.741 1.12695" stroke="white" stroke-width="1.5" stroke-miterlimit="10" stroke-linecap="round"/>
<path d="M150.797 4.63697C150.797 4.63697 145.871 4.89691 143.753 2.61279" stroke="white" stroke-width="1.5" stroke-miterlimit="10" stroke-linecap="round"/>
<path d="M154.105 10.6172C154.105 10.6172 154.858 12.1399 155.578 11.9354" stroke="white" stroke-width="1.5" stroke-miterlimit="10" stroke-linecap="round"/>
<path d="M155.099 10.0234C155.099 10.0234 155.165 10.5618 155.759 10.7109" stroke="white" stroke-width="1.5" stroke-miterlimit="10" stroke-linecap="round"/>
<path d="M140.617 9.03223C140.617 9.03223 140.343 10.3768 140.617 11.3982" stroke="white" stroke-width="1.5" stroke-miterlimit="10" stroke-linecap="round"/>
<path d="M141.764 10.2148C141.764 10.2148 141.577 11.7138 140.834 12.1401" stroke="white" stroke-width="1.5" stroke-miterlimit="10" stroke-linecap="round"/>
</g>
<path d="M152.852 14.205C152.837 14.1904 152.821 14.1786 152.805 14.1667C151.933 13.4858 150.979 13.2958 150.048 13.6336C149.967 13.6626 149.883 13.6996 149.819 13.821C149.699 14.0506 149.695 14.3 149.727 14.6602C150.795 14.0519 151.916 14.0242 152.988 14.5823C153.015 14.4596 153.003 14.4517 152.961 14.3554C152.93 14.2868 152.892 14.2419 152.852 14.2063V14.205Z" fill="#232628"/>
<path d="M143.265 14.4399C143.279 14.424 143.294 14.4108 143.308 14.3976C144.116 13.6415 145.05 13.3684 146.007 13.6231C146.091 13.6455 146.178 13.6745 146.252 13.7893C146.392 14.0071 146.418 14.2551 146.418 14.6167C145.301 14.106 144.181 14.176 143.163 14.8278C143.126 14.7077 143.137 14.6998 143.17 14.5995C143.193 14.5283 143.228 14.4808 143.265 14.4412V14.4399Z" fill="#232628"/>
<path d="M151.905 15.9968C151.908 15.4786 151.562 15.0566 151.134 15.0543C150.705 15.0519 150.355 15.47 150.352 15.9881C150.349 16.5062 150.694 16.9282 151.123 16.9306C151.552 16.933 151.902 16.5149 151.905 15.9968Z" fill="#232628"/>
<path d="M145.461 16.193C145.464 15.6749 145.119 15.2529 144.69 15.2505C144.261 15.2481 143.911 15.6662 143.909 16.1844C143.906 16.7025 144.251 17.1245 144.68 17.1269C145.109 17.1293 145.459 16.7112 145.461 16.193Z" fill="#232628"/>
<path opacity="0.1" d="M147.904 16.1604C147.893 16.0984 147.896 16.035 147.914 15.9743C147.959 15.8292 148.061 15.622 148.21 16.0218C148.382 16.4823 148.346 18.715 148.133 19.5437C148.085 19.7324 148.177 19.9303 148.357 20.0068L148.672 20.1427C148.771 20.185 148.853 20.2641 148.886 20.3671C148.923 20.4832 148.891 20.6138 148.567 20.6296C147.976 20.6574 147.267 20.0807 147.477 19.5292C147.683 18.9895 148.151 17.5564 147.904 16.1604Z" fill="#272727"/>
<path d="M150.121 22.7883C150.048 22.849 149.835 22.7474 149.516 22.6181C149.196 22.4875 148.757 22.3371 148.257 22.2803C147.758 22.2249 147.297 22.275 146.958 22.3331C146.619 22.3885 146.389 22.4413 146.331 22.3661C146.303 22.3305 146.326 22.2671 146.397 22.1853C146.468 22.1048 146.592 22.0085 146.767 21.9174C146.941 21.8264 147.167 21.7433 147.433 21.6918C147.699 21.6403 148.005 21.6232 148.325 21.6575C148.643 21.6944 148.939 21.7789 149.187 21.8871C149.437 21.9966 149.64 22.1273 149.791 22.2539C149.941 22.3819 150.043 22.502 150.096 22.597C150.148 22.692 150.156 22.758 150.122 22.787L150.121 22.7883Z" fill="#232628"/>
<path opacity="0.1" d="M147.066 13.9948C147.03 14.0001 146.988 14.0199 146.99 14.0529C146.993 14.0885 147.029 14.0925 147.058 14.103C147.105 14.1215 147.151 14.1452 147.195 14.1703C147.239 14.1954 147.282 14.2244 147.309 14.264C147.328 14.2917 147.339 14.3247 147.348 14.3577C147.364 14.4131 147.371 14.4672 147.377 14.5226C147.383 14.5688 147.429 14.5952 147.475 14.553C147.492 14.5371 147.503 14.516 147.511 14.4949C147.534 14.4289 147.541 14.3616 147.528 14.297C147.52 14.2614 147.507 14.2257 147.486 14.1914C147.409 14.0648 147.229 13.9697 147.064 13.9935L147.066 13.9948ZM149.099 13.8879C149.116 13.8101 149.02 13.7415 148.938 13.7758C148.801 13.8338 148.719 13.9763 148.686 14.103C148.637 14.2838 148.67 14.5002 148.843 14.6176C148.868 14.6348 148.905 14.6493 148.929 14.6308C148.988 14.586 148.921 14.3907 148.92 14.3339C148.917 14.2495 148.938 14.165 148.979 14.0898C149.015 14.0238 149.083 13.9631 149.099 13.8893V13.8879ZM147.957 13.5594C147.933 13.5475 147.912 13.5567 147.905 13.5805C147.89 13.6319 147.919 13.6662 147.945 13.7058C147.975 13.7507 148.002 13.7969 148.023 13.8457C148.067 13.9407 148.093 14.0423 148.106 14.1452C148.118 14.2416 148.119 14.3392 148.11 14.4369C148.102 14.5292 148.078 14.619 148.072 14.71C148.072 14.7192 148.08 14.7443 148.094 14.7311C148.262 14.5807 148.284 14.3616 148.263 14.1637C148.251 14.0529 148.224 13.9407 148.177 13.8391C148.133 13.7388 148.068 13.6108 147.957 13.558V13.5594Z" fill="#272727"/>
<path opacity="0.4" d="M165.374 63.6431C165.374 63.6431 165.896 65.2094 161.002 65.0748C158.954 65.018 153.88 64.4889 148.674 64.349C141.441 64.1551 133.951 64.349 133.951 64.349C133.951 64.349 132.953 64.0904 132.47 63.04L165.374 63.6431Z" fill="#020202"/>
<path d="M166.235 46.2079L165.429 63.3236C165.426 63.4344 165.407 63.5426 165.374 63.6429C165.359 63.6891 165.342 63.7327 165.321 63.7749C165.222 63.9781 165.062 64.143 164.867 64.2433C164.729 64.3132 164.573 64.3515 164.408 64.3476L142.02 63.8778L141.866 63.8738L141.167 63.858L133.475 63.7313C132.925 63.7195 132.488 63.2391 132.501 62.6585L132.456 45.4201C132.468 44.8408 132.925 44.3816 133.475 44.3948L165.257 45.1338C165.808 45.1469 166.245 45.6273 166.233 46.2065L166.235 46.2079Z" fill="#D8D7D6"/>
<path d="M149.893 57.3157L148.315 57.2788C147.231 57.2537 146.371 56.3089 146.395 55.1675L146.429 53.5075C146.453 52.3675 147.351 51.4623 148.437 51.4873L150.015 51.5243C151.099 51.5493 151.958 52.4941 151.935 53.6355L151.9 55.2955C151.876 56.4356 150.978 57.3408 149.893 57.3157Z" fill="white"/>
<path opacity="0.05" d="M139.076 63.5109C139.076 63.5109 163.48 62.8986 165.691 51.1494L165.032 62.3417C164.983 63.1797 164.316 63.8315 163.519 63.8209L139.076 63.5109Z" fill="black"/>
</g>
<defs>
<clipPath id="clip0_119_2467">
<rect width="298" height="163" fill="white"/>
</clipPath>
</defs>
</svg>
