<svg width="55" height="56" viewBox="0 0 55 56" fill="none" xmlns="http://www.w3.org/2000/svg">
<rect width="55" height="56" rx="10" fill="#F47222"/>
<path fill-rule="evenodd" clip-rule="evenodd" d="M30.6508 27.4495C30.5048 27.4495 30.3588 27.4175 30.2228 27.3535C29.8738 27.1875 29.6508 26.8355 29.6508 26.4495V25.0915H21.4668C20.9148 25.0915 20.4668 24.6435 20.4668 24.0915C20.4668 23.5395 20.9148 23.0915 21.4668 23.0915H29.6508V21.7345C29.6508 21.3485 29.8738 20.9965 30.2228 20.8305C30.5708 20.6655 30.9848 20.7155 31.2838 20.9605L34.1158 23.2785C34.3688 23.4605 34.5328 23.7565 34.5328 24.0915C34.5328 24.4155 34.3798 24.7025 34.1408 24.8865L31.2838 27.2235C31.1018 27.3725 30.8778 27.4495 30.6508 27.4495Z" fill="white"/>
<path fill-rule="evenodd" clip-rule="evenodd" d="M24.349 35.6423C24.122 35.6423 23.898 35.5653 23.716 35.4163L20.866 33.0843C20.623 32.9013 20.467 32.6113 20.467 32.2853C20.467 31.9483 20.633 31.6503 20.888 31.4693L23.716 29.1543C24.015 28.9093 24.427 28.8583 24.777 29.0243C25.126 29.1893 25.349 29.5413 25.349 29.9283V31.2853H33.533C34.085 31.2853 34.533 31.7323 34.533 32.2853C34.533 32.8373 34.085 33.2853 33.533 33.2853H25.349V34.6423C25.349 35.0283 25.126 35.3803 24.777 35.5463C24.641 35.6103 24.495 35.6423 24.349 35.6423Z" fill="white"/>
</svg>
