<svg width="70" height="70" viewBox="0 0 70 70" fill="none" xmlns="http://www.w3.org/2000/svg">
<path d="M23.2207 45.3778C22.8376 45.3793 22.4611 45.2786 22.1299 45.0861C21.8809 44.9429 21.6626 44.7519 21.4875 44.5244C21.3124 44.2966 21.1839 44.0364 21.1094 43.7591C21.0349 43.4817 21.0159 43.1924 21.0533 42.9077C21.0908 42.6227 21.1841 42.3483 21.3278 42.0995L30.8069 25.6816C31.0971 25.1788 31.5749 24.8118 32.1358 24.6614C32.6963 24.511 33.2937 24.5894 33.7965 24.8795C34.2993 25.1696 34.6663 25.6475 34.8168 26.2081C34.9673 26.7688 34.8888 27.3663 34.5986 27.8691L25.1195 44.287C24.927 44.6198 24.65 44.896 24.3166 45.0876C23.9833 45.2789 23.6052 45.3793 23.2207 45.3778Z" fill="white"/>
<path d="M33.4095 43.218C32.965 43.216 32.5316 43.0786 32.167 42.8242C31.8022 42.5702 31.5236 42.2109 31.3679 41.7947L28.4863 34.083L20.3663 35.4451C19.7938 35.541 19.2067 35.4054 18.7342 35.0685C18.2616 34.7317 17.9422 34.2207 17.8463 33.6484C17.7503 33.0759 17.8858 32.4887 18.2227 32.0162C18.5596 31.5437 19.0705 31.2244 19.6429 31.1284L29.545 29.4688C30.0457 29.3872 30.5594 29.4814 30.9986 29.7354C31.4379 29.9895 31.7756 30.3879 31.9541 30.863L35.4541 40.2663C35.6562 40.8097 35.6341 41.4111 35.3929 41.9382C35.1517 42.4655 34.7112 42.8753 34.1679 43.078C33.9258 43.1705 33.6688 43.2177 33.4095 43.218Z" fill="white"/>
<path d="M27.473 47.8398C27.0901 47.8401 26.7139 47.7394 26.3822 47.5481L17.8801 42.6393C17.6312 42.4956 17.4129 42.3042 17.2379 42.0764C17.0628 41.8483 16.9344 41.5882 16.8599 41.3105C16.7854 41.0328 16.7664 40.7435 16.8038 40.4586C16.8412 40.1733 16.9344 39.8986 17.078 39.6498C17.2217 39.4007 17.4129 39.1825 17.6409 39.0075C17.8689 38.8325 18.1291 38.7039 18.4067 38.6295C18.6843 38.5548 18.9739 38.5359 19.2589 38.5732C19.5438 38.6108 19.8187 38.7039 20.0676 38.8477L28.5697 43.7564C28.9877 43.9968 29.3143 44.3689 29.499 44.8143C29.6839 45.2597 29.7162 45.7538 29.5911 46.2196C29.466 46.6853 29.1904 47.0966 28.8074 47.3897C28.4244 47.6826 27.9553 47.8409 27.473 47.8398Z" fill="white"/>
<path d="M48.6506 58.4398C48.1726 58.4535 47.6942 58.436 47.2185 58.3873C46.6223 58.3614 46.0419 58.1881 45.5292 57.8824C45.0167 57.5771 44.5877 57.1492 44.2814 56.6373C44.1735 56.4973 43.771 55.8061 42.9981 54.409C42.7085 53.8656 42.2812 53.4077 41.7591 53.081C41.237 52.7544 40.6385 52.5706 40.0231 52.5482C39.2974 52.5286 38.5837 52.7337 37.9794 53.135C37.3748 53.5366 36.909 54.1147 36.6456 54.7911C35.9748 56.4565 35.6393 57.2877 34.7877 57.8594C33.8958 58.3617 32.8668 58.5658 31.8506 58.4427H30.4593C19.9592 58.4427 14.7092 58.4427 10.9876 54.724C7.26589 51.0052 7.27173 45.7436 7.27173 35.2523V34.7302C7.27173 24.2302 7.27173 18.9802 10.9876 15.2585C14.7034 11.5368 19.9709 11.5427 30.4593 11.5427H31.8535C32.8723 11.4183 33.9045 11.6227 34.7993 12.126C35.6539 12.7093 35.9893 13.5435 36.6514 15.2031C36.8976 15.8304 37.3188 16.3738 37.8648 16.7687C38.4108 17.1636 39.0588 17.3933 39.7317 17.4305C40.4046 17.4677 41.074 17.3107 41.6602 16.9784C42.2465 16.6461 42.7251 16.1524 43.0389 15.556C43.7914 14.1443 44.1356 13.5377 44.2464 13.386C44.5597 12.8678 44.9946 12.4338 45.5134 12.1217C46.0323 11.8096 46.6197 11.6289 47.2243 11.5952C47.6925 11.5511 48.1629 11.5355 48.6331 11.5485C50.468 11.4596 52.3069 11.5573 54.1223 11.8402C56.5107 12.3552 58.7003 13.5481 60.4281 15.276C62.1559 17.0038 63.3488 19.1932 63.8639 21.5818C64.1466 23.397 64.2443 25.2361 64.1556 27.071V42.9552C64.2422 44.7793 64.1445 46.6078 63.8639 48.4123C63.3509 50.8072 62.1565 53.0026 60.4246 54.7339C58.6924 56.4655 56.4967 57.6593 54.1018 58.1715C52.2985 58.4465 50.4721 58.5364 48.6506 58.4398ZM30.4593 15.9177C21.1755 15.9177 16.5146 15.9177 14.0792 18.3502C11.6438 20.7827 11.6467 25.4464 11.6467 34.7302V35.2523C11.6467 44.5361 11.6467 49.1969 14.0792 51.6294C16.5117 54.0619 21.1755 54.0648 30.4593 54.0648H32.2268C32.3231 53.8257 32.4368 53.5281 32.5827 53.1723C33.1619 51.6991 34.1714 50.4347 35.4801 49.544C36.7885 48.6532 38.3352 48.1775 39.9181 48.179C41.3187 48.1974 42.6904 48.5824 43.8958 49.2958C45.1016 50.0089 46.0994 51.0259 46.7898 52.2448C47.3527 53.2657 47.6648 53.8286 47.7989 54.0502H47.8543C47.971 54.0502 48.2218 54.0502 48.6418 54.0502C50.1571 54.1223 51.6758 54.0607 53.1802 53.8665C54.7502 53.5311 56.1899 52.7488 57.3259 51.6139C58.4617 50.4791 59.2454 49.04 59.5823 47.4702C59.7733 45.9635 59.8337 44.443 59.7631 42.9261V27.0564C59.8348 25.5295 59.7733 23.9993 59.5793 22.4831C59.2422 20.9201 58.4623 19.4871 57.3326 18.3555C56.203 17.2238 54.7715 16.4413 53.2093 16.1014C51.6941 15.9072 50.1646 15.8457 48.6389 15.9177C48.216 15.9177 47.9681 15.9177 47.8106 15.9177L47.7756 15.9702C47.7085 16.0839 47.4577 16.5535 47.0143 17.3993C46.3531 18.7154 45.3411 19.8231 44.0898 20.5998C42.8383 21.3766 41.3966 21.7921 39.9239 21.8006C38.3425 21.8012 36.7978 21.3258 35.4906 20.4362C34.1833 19.5467 33.1739 18.2842 32.5943 16.8131C32.4485 16.4514 32.3348 16.151 32.2356 15.9089H30.4593V15.9177Z" fill="white"/>
<path d="M61.9597 42.5422H52.1042C51.5238 42.5422 50.9676 42.3118 50.5572 41.9017C50.1472 41.4914 49.9167 40.9349 49.9167 40.3547C49.9167 39.7746 50.1472 39.2184 50.5572 38.808C50.9676 38.3979 51.5238 38.1672 52.1042 38.1672H61.9597C62.5398 38.1672 63.096 38.3979 63.5064 38.808C63.9165 39.2184 64.1472 39.7746 64.1472 40.3547C64.1472 40.9349 63.9165 41.4914 63.5064 41.9017C63.096 42.3118 62.5398 42.5422 61.9597 42.5422Z" fill="white"/>
<path d="M61.9591 31.8783H47.5012C46.9211 31.8783 46.3649 31.6478 45.9545 31.2375C45.5441 30.8274 45.3137 30.2709 45.3137 29.6908C45.3137 29.1106 45.5441 28.5542 45.9545 28.144C46.3649 27.7337 46.9211 27.5032 47.5012 27.5032H61.9591C62.5393 27.5032 63.0958 27.7337 63.5061 28.144C63.9162 28.5542 64.1466 29.1106 64.1466 29.6908C64.1466 30.2709 63.9162 30.8274 63.5061 31.2375C63.0958 31.6478 62.5393 31.8783 61.9591 31.8783Z" fill="white"/>
</svg>
