<svg width="24" height="24" viewBox="0 0 24 24" fill="none" xmlns="http://www.w3.org/2000/svg">
<path d="M7.96142 15.5581C7.83007 15.5586 7.70096 15.5241 7.58742 15.4581C7.50205 15.409 7.42721 15.3435 7.36717 15.2655C7.30714 15.1874 7.26309 15.0982 7.23755 15.0031C7.212 14.908 7.20547 14.8088 7.21831 14.7112C7.23116 14.6135 7.26314 14.5194 7.31242 14.4341L10.5624 8.8051C10.6619 8.63271 10.8257 8.50689 11.018 8.45532C11.2102 8.40375 11.415 8.43065 11.5874 8.53011C11.7598 8.62956 11.8856 8.79342 11.9372 8.98564C11.9888 9.17787 11.9619 9.38271 11.8624 9.5551L8.61242 15.1841C8.54642 15.2982 8.45147 15.3929 8.33716 15.4586C8.22286 15.5242 8.09324 15.5586 7.96142 15.5581Z" fill="#403CA5"/>
<path d="M11.4547 14.8176C11.3023 14.8169 11.1537 14.7698 11.0287 14.6826C10.9036 14.5955 10.8081 14.4723 10.7547 14.3296L9.76672 11.6856L6.98272 12.1526C6.78646 12.1855 6.58517 12.139 6.42314 12.0235C6.26111 11.908 6.15161 11.7328 6.11872 11.5366C6.08583 11.3403 6.13226 11.139 6.24778 10.977C6.3633 10.815 6.53846 10.7055 6.73472 10.6726L10.1297 10.1036C10.3014 10.0756 10.4775 10.1079 10.6281 10.195C10.7787 10.2821 10.8945 10.4187 10.9557 10.5816L12.1557 13.8056C12.225 13.9919 12.2174 14.1981 12.1347 14.3788C12.052 14.5596 11.901 14.7001 11.7147 14.7696C11.6317 14.8013 11.5436 14.8175 11.4547 14.8176Z" fill="#403CA5"/>
<path d="M9.4193 16.4022C9.28801 16.4023 9.15901 16.3678 9.0453 16.3022L6.1303 14.6192C6.04494 14.5699 5.97012 14.5043 5.9101 14.4262C5.85008 14.348 5.80605 14.2588 5.78052 14.1636C5.75498 14.0684 5.74844 13.9692 5.76127 13.8715C5.7741 13.7737 5.80605 13.6795 5.8553 13.5942C5.90455 13.5088 5.97012 13.434 6.04828 13.374C6.12645 13.314 6.21566 13.2699 6.31084 13.2444C6.40602 13.2188 6.5053 13.2123 6.60301 13.2251C6.70072 13.238 6.79494 13.2699 6.8803 13.3192L9.7953 15.0022C9.9386 15.0846 10.0506 15.2122 10.1139 15.3649C10.1773 15.5176 10.1884 15.687 10.1455 15.8467C10.1026 16.0064 10.0081 16.1474 9.87681 16.2479C9.74548 16.3483 9.58464 16.4026 9.4193 16.4022Z" fill="#403CA5"/>
<path d="M16.6802 20.0365C16.5163 20.0412 16.3523 20.0352 16.1892 20.0185C15.9848 20.0096 15.7858 19.9502 15.61 19.8454C15.4343 19.7407 15.2872 19.594 15.1822 19.4185C15.1452 19.3705 15.0072 19.1335 14.7422 18.6545C14.6429 18.4682 14.4964 18.3112 14.3174 18.1992C14.1384 18.0872 13.9332 18.0242 13.7222 18.0165C13.4734 18.0098 13.2287 18.0801 13.0215 18.2177C12.8142 18.3554 12.6545 18.5536 12.5642 18.7855C12.3342 19.3565 12.2192 19.6415 11.9272 19.8375C11.6214 20.0097 11.2686 20.0797 10.9202 20.0375H10.4432C6.84316 20.0375 5.04316 20.0375 3.76716 18.7625C2.49116 17.4875 2.49316 15.6835 2.49316 12.0865V11.9075C2.49316 8.30747 2.49316 6.50748 3.76716 5.23148C5.04116 3.95548 6.84716 3.95748 10.4432 3.95748H10.9212C11.2705 3.91485 11.6244 3.98492 11.9312 4.15747C12.2242 4.35747 12.3392 4.64348 12.5662 5.21248C12.6506 5.42757 12.795 5.61388 12.9822 5.74927C13.1694 5.88466 13.3916 5.96341 13.6223 5.97615C13.853 5.9889 14.0825 5.9351 14.2835 5.82117C14.4845 5.70723 14.6486 5.53797 14.7562 5.33348C15.0142 4.84948 15.1322 4.64148 15.1702 4.58948C15.2776 4.4118 15.4267 4.26299 15.6046 4.15599C15.7825 4.049 15.9839 3.98704 16.1912 3.97548C16.3517 3.96037 16.513 3.95502 16.6742 3.95947C17.3033 3.92899 17.9338 3.9625 18.5562 4.05948C19.3751 4.23606 20.1258 4.64506 20.7182 5.23746C21.3106 5.82986 21.7196 6.58052 21.8962 7.39948C21.9931 8.02181 22.0266 8.65238 21.9962 9.28148V14.7275C22.0259 15.3529 21.9924 15.9798 21.8962 16.5985C21.7203 17.4196 21.3108 18.1723 20.717 18.7659C20.1231 19.3596 19.3703 19.7689 18.5492 19.9445C17.9309 20.0388 17.3047 20.0696 16.6802 20.0365ZM10.4432 5.45748C7.26016 5.45748 5.66216 5.45748 4.82716 6.29148C3.99216 7.12548 3.99316 8.72447 3.99316 11.9075V12.0865C3.99316 15.2695 3.99316 16.8675 4.82716 17.7015C5.66116 18.5355 7.26016 18.5365 10.4432 18.5365H11.0492C11.0822 18.4545 11.1212 18.3525 11.1712 18.2305C11.3698 17.7254 11.7159 17.2919 12.1646 16.9865C12.6132 16.6811 13.1435 16.518 13.6862 16.5185C14.1664 16.5248 14.6367 16.6568 15.05 16.9014C15.4634 17.1459 15.8055 17.4946 16.0422 17.9125C16.2352 18.2625 16.3422 18.4555 16.3882 18.5315H16.4072C16.4472 18.5315 16.5332 18.5315 16.6772 18.5315C17.1967 18.5562 17.7174 18.5351 18.2332 18.4685C18.7715 18.3535 19.2651 18.0853 19.6546 17.6962C20.044 17.3071 20.3127 16.8137 20.4282 16.2755C20.4937 15.7589 20.5144 15.2376 20.4902 14.7175V9.27648C20.5148 8.75297 20.4937 8.22833 20.4272 7.70848C20.3116 7.17259 20.0442 6.68129 19.6569 6.29329C19.2696 5.90529 18.7788 5.63701 18.2432 5.52048C17.7237 5.45388 17.1993 5.43279 16.6762 5.45748C16.5312 5.45748 16.4462 5.45748 16.3922 5.45748L16.3802 5.47548C16.3572 5.51448 16.2712 5.67547 16.1192 5.96547C15.8925 6.41671 15.5455 6.79648 15.1165 7.06279C14.6874 7.3291 14.1931 7.47158 13.6882 7.47447C13.146 7.47468 12.6164 7.31169 12.1682 7.0067C11.72 6.70171 11.3739 6.26886 11.1752 5.76448C11.1252 5.64048 11.0862 5.53747 11.0522 5.45447H10.4432V5.45748Z" fill="#403CA5"/>
<path d="M21.2433 14.5859H17.8643C17.6653 14.5859 17.4746 14.5069 17.3339 14.3663C17.1933 14.2256 17.1143 14.0348 17.1143 13.8359C17.1143 13.637 17.1933 13.4463 17.3339 13.3056C17.4746 13.165 17.6653 13.0859 17.8643 13.0859H21.2433C21.4422 13.0859 21.6329 13.165 21.7736 13.3056C21.9142 13.4463 21.9933 13.637 21.9933 13.8359C21.9933 14.0348 21.9142 14.2256 21.7736 14.3663C21.6329 14.5069 21.4422 14.5859 21.2433 14.5859Z" fill="#403CA5"/>
<path d="M21.2431 10.9297H16.2861C16.0872 10.9297 15.8965 10.8507 15.7558 10.71C15.6151 10.5694 15.5361 10.3786 15.5361 10.1797C15.5361 9.98078 15.6151 9.79002 15.7558 9.64937C15.8965 9.50872 16.0872 9.42969 16.2861 9.42969H21.2431C21.442 9.42969 21.6328 9.50872 21.7735 9.64937C21.9141 9.79002 21.9931 9.98078 21.9931 10.1797C21.9931 10.3786 21.9141 10.5694 21.7735 10.71C21.6328 10.8507 21.442 10.9297 21.2431 10.9297Z" fill="#403CA5"/>
</svg>
