<svg width="24" height="25" viewBox="0 0 24 25" fill="none" xmlns="http://www.w3.org/2000/svg">
<path fill-rule="evenodd" clip-rule="evenodd" d="M21.6555 8.92686C21.4605 8.22986 21.0345 7.69686 20.4255 7.38386C19.2495 6.77886 17.8485 7.17686 17.2995 7.37486C16.2135 7.76686 15.1635 8.22786 14.0695 8.66986C12.8465 7.53786 11.6145 6.45586 10.4675 5.45586C9.64653 4.73786 8.80153 4.47586 7.95153 4.67886C7.49153 4.78386 7.05853 4.94886 6.63953 5.10986C6.44353 5.18486 6.24553 5.25986 6.04053 5.33086C5.84453 5.39886 5.68653 5.54386 5.60153 5.73186C5.51653 5.92086 5.51253 6.13486 5.59253 6.32586L7.66153 11.3449C6.94453 11.6459 6.06353 12.0209 5.23453 12.3729L3.99953 12.8959C3.87653 12.5989 3.74353 12.2789 3.69353 12.1569C3.53753 11.7729 3.09853 11.5889 2.71653 11.7459C2.33253 11.9019 2.14853 12.3399 2.30453 12.7229C2.39553 12.9449 2.75453 13.8109 2.84853 14.0339C2.86553 14.0739 2.88253 14.1129 2.89953 14.1519C2.90253 14.1579 2.90453 14.1639 2.90753 14.1699C2.91553 14.1899 2.92453 14.2079 2.93353 14.2269C3.82453 16.1649 5.30153 17.1939 7.08853 17.1939C7.76353 17.1939 8.48353 17.0459 9.23353 16.7459C12.7865 15.3169 16.3495 13.8209 19.4995 12.4989C20.8575 11.9179 22.1125 10.5519 21.6555 8.92686Z" fill="#403CA5"/>
<path fill-rule="evenodd" clip-rule="evenodd" d="M19.0431 20.6299H4.9541C4.5401 20.6299 4.2041 20.9659 4.2041 21.3799C4.2041 21.7939 4.5401 22.1299 4.9541 22.1299H19.0431C19.4571 22.1299 19.7931 21.7939 19.7931 21.3799C19.7931 20.9659 19.4571 20.6299 19.0431 20.6299Z" fill="#403CA5"/>
</svg>
