<svg width="24" height="25" viewBox="0 0 24 25" fill="none" xmlns="http://www.w3.org/2000/svg">
<path fill-rule="evenodd" clip-rule="evenodd" d="M15.1508 11.9495C15.0048 11.9495 14.8588 11.9175 14.7228 11.8535C14.3738 11.6875 14.1508 11.3355 14.1508 10.9495V9.59151H5.9668C5.4148 9.59151 4.9668 9.14351 4.9668 8.59151C4.9668 8.03951 5.4148 7.59151 5.9668 7.59151H14.1508V6.23451C14.1508 5.84851 14.3738 5.49651 14.7228 5.33051C15.0708 5.16551 15.4848 5.21551 15.7838 5.46051L18.6158 7.77851C18.8688 7.96051 19.0328 8.25651 19.0328 8.59151C19.0328 8.91551 18.8798 9.20251 18.6408 9.38651L15.7838 11.7235C15.6018 11.8725 15.3778 11.9495 15.1508 11.9495Z" fill="white"/>
<path fill-rule="evenodd" clip-rule="evenodd" d="M8.84904 20.1423C8.62204 20.1423 8.39804 20.0653 8.21604 19.9163L5.36604 17.5843C5.12304 17.4013 4.96704 17.1113 4.96704 16.7853C4.96704 16.4483 5.13304 16.1503 5.38804 15.9693L8.21604 13.6543C8.51504 13.4093 8.92704 13.3583 9.27704 13.5243C9.62604 13.6893 9.84904 14.0413 9.84904 14.4283V15.7853H18.033C18.585 15.7853 19.033 16.2323 19.033 16.7853C19.033 17.3373 18.585 17.7853 18.033 17.7853H9.84904V19.1423C9.84904 19.5283 9.62604 19.8803 9.27704 20.0463C9.14104 20.1103 8.99504 20.1423 8.84904 20.1423Z" fill="white"/>
</svg>
