<svg width="70" height="70" viewBox="0 0 70 70" fill="none" xmlns="http://www.w3.org/2000/svg">
<path d="M35.3318 13.35C21.5981 13.35 10.4646 24.4835 10.4646 38.2174C15.6956 38.4542 18.301 39.1989 21.7903 41.643C32.4712 37.4981 38.1566 37.5728 48.8488 41.643C52.5997 38.8961 55.1602 38.3093 60.1993 38.2174C60.1993 24.4835 49.0658 13.35 35.3318 13.35Z" stroke="white" stroke-width="4" stroke-linecap="round" stroke-linejoin="round"/>
<path d="M46.1154 40.612C46.1154 22.9673 35.3325 13.35 35.3325 13.35C35.3325 13.35 24.5496 24.0928 24.5496 40.612" stroke="white" stroke-width="4" stroke-linecap="round" stroke-linejoin="round"/>
<path d="M35.3337 38.6117V56.3984C35.3337 59.0782 33.1614 61.2506 30.4816 61.2506C27.8016 61.2506 25.6292 59.0782 25.6292 56.3984V55.5006" stroke="white" stroke-width="4" stroke-linecap="round" stroke-linejoin="round"/>
<path d="M35.3335 8.75V13.3505" stroke="white" stroke-width="4" stroke-linecap="round" stroke-linejoin="round"/>
</svg>
